<?xml version="1.0" encoding="utf-8"?>
<!-- Generator: Adobe Illustrator 16.0.0, SVG Export Plug-In . SVG Version: 6.00 Build 0)  -->
<!DOCTYPE svg PUBLIC "-//W3C//DTD SVG 1.1//EN" "http://www.w3.org/Graphics/SVG/1.1/DTD/svg11.dtd">
<svg version="1.1" id="Layer_1" xmlns="http://www.w3.org/2000/svg" xmlns:xlink="http://www.w3.org/1999/xlink" x="0px" y="0px"
	 width="25px" height="25px" viewBox="0 0 25 25" enable-background="new 0 0 25 25" xml:space="preserve">
<g>
	<circle fill="#676868" cx="12.5" cy="12.501" r="12.483"/>
	<g>
		<path fill="#F8AA1A" d="M19.982,9.437l-1.939-1.287V3.852c0-0.14-0.111-0.253-0.251-0.253H7.208c-0.138,0-0.251,0.113-0.251,0.253
			v4.297L5.018,9.437C4.949,9.481,4.905,9.558,4.905,9.645v7.791c0,0.14,0.113,0.253,0.251,0.253h14.689
			c0.138,0,0.251-0.113,0.251-0.253V9.645C20.096,9.558,20.051,9.481,19.982,9.437z M18.043,8.752l0.966,0.642h-0.966V8.752z
			 M18.043,9.896h0.789l-0.789,0.419V9.896z M7.461,4.103h10.08v6.479l-4.212,2.235l-0.69-0.458c-0.083-0.057-0.194-0.057-0.277,0
			l-0.69,0.458l-4.21-2.235V4.103z M6.957,8.754v0.64H5.992L6.957,8.754z M6.957,9.896v0.419L6.168,9.896H6.957z M5.409,10.064
			l5.785,3.068l-5.785,3.835V10.064z M5.992,17.185l6.507-4.313l6.51,4.313H5.992z M19.591,16.968l-5.784-3.835l5.784-3.068V16.968z
			"/>
		<path fill="#F8AA1A" d="M14.505,10.216c0.138,0,0.251-0.111,0.251-0.251c0-0.138-0.113-0.251-0.251-0.251h-2.006
			c-0.965,0-1.753-0.787-1.753-1.753V7.886c0-0.968,0.788-1.753,1.753-1.753c0.967,0,1.755,0.785,1.755,1.753v0.186
			c0,0.208-0.172,0.378-0.381,0.378c-0.208,0-0.378-0.17-0.378-0.378V7.718c0-0.599-0.488-1.085-1.087-1.085
			s-1.087,0.486-1.087,1.085c0,0.601,0.488,1.087,1.087,1.087c0.273,0,0.524-0.101,0.715-0.27c0.156,0.251,0.435,0.419,0.75,0.419
			c0.486,0,0.883-0.397,0.883-0.883V7.886c0-1.245-1.012-2.257-2.257-2.257c-1.243,0-2.255,1.012-2.255,2.257v0.075
			c0,1.243,1.012,2.255,2.255,2.255H14.505z M12.408,8.303c-0.322,0-0.585-0.263-0.585-0.585s0.263-0.583,0.585-0.583
			s0.583,0.261,0.583,0.583S12.729,8.303,12.408,8.303z"/>
	</g>
</g>
</svg>
