<?xml version="1.0" encoding="utf-8"?>
<!-- Generator: Adobe Illustrator 16.0.0, SVG Export Plug-In . SVG Version: 6.00 Build 0)  -->
<!DOCTYPE svg PUBLIC "-//W3C//DTD SVG 1.1//EN" "http://www.w3.org/Graphics/SVG/1.1/DTD/svg11.dtd">
<svg version="1.1" id="Layer_1" xmlns="http://www.w3.org/2000/svg" xmlns:xlink="http://www.w3.org/1999/xlink" x="0px" y="0px"
	 width="68px" height="68px" viewBox="0 0 68 68" enable-background="new 0 0 68 68" xml:space="preserve">
<g>
	<circle fill="#676868" cx="34.001" cy="34" r="33.932"/>
	<path fill="#F9B54C" d="M43.94,47.358c0,0.374-0.055,0.804-0.322,1.015c-0.641,0.643-1.71,0.696-2.403,0.055l-0.374-0.321
		c0.479,0.43,0.479,1.176,0.054,1.656l-1.178,1.177c-0.426,0.428-1.174,0.428-1.602,0l-0.747-0.746c0.479,0.479,0.479,1.334,0,1.762
		l-0.643,0.587c-0.48,0.43-1.229,0.43-1.71,0l-0.586-0.587c0.319,0.321,0.319,0.854,0,1.177l-0.643,0.639
		c-0.319,0.321-0.855,0.321-1.176,0l-1.496-0.799c0,0-0.053,0-0.108-0.055l-0.534-1.55c-0.106-0.321,0-0.695,0.213-0.907
		c0.481-0.482,0.481-1.178,0-1.657l-0.694-0.696c-0.426-0.427-1.069-0.481-1.549-0.105l-0.427,0.372l0.586-0.586
		c0.59-0.534,0.59-1.441,0-2.031l-0.534-0.533c-0.587-0.589-1.441-0.589-2.03,0l-0.695,0.694c0.48-0.482,0.48-1.283,0-1.764
		l-0.856-0.854c-0.481-0.481-1.229-0.481-1.71-0.055l-2.083,1.816l0,0c0.267-0.372,0.213-0.853-0.055-1.176l-0.64-0.641
		c-0.375-0.374-0.909-0.374-1.284,0l-0.106,0.107c-0.536-0.481-1.015-0.855-1.388-1.229l4.969-11.544
		c1.443,0,4.061-0.104,6.093-1.334c1.708-1.068,3.954-0.641,5.022,0.964c-0.215,0.104-0.428,0.209-0.641,0.317
		c-1.39,0.909-3.154,1.497-4.544,1.871c-1.121,0.321-1.923,1.283-2.03,2.459c-0.053,1.175-0.375,2.405-0.642,3.207
		c-0.212,0.639,0.055,1.283,0.642,1.655c0.321,0.161,0.641,0.267,1.015,0.267c0.481,0,0.91-0.161,1.282-0.48
		c1.285-1.122,3.101-2.886,2.941-3.687c0,0,1.708,0.269,2.083-0.163c0,0,8.442,6.522,10.42,10.476l0,0
		C43.778,46.13,43.94,46.771,43.94,47.358z"/>
	<g>
		<path fill="#FFD05B" d="M50.94,42.388c-1.656,1.07-6.84,4.328-7.162,3.637c-2.03-3.956-10.472-10.423-10.472-10.423
			c-0.375,0.429-2.084,0.161-2.084,0.161c0.16,0.803-1.656,2.619-2.938,3.687c-0.375,0.321-0.802,0.482-1.283,0.482
			c-0.32,0-0.695-0.108-1.017-0.267c-0.587-0.319-0.801-1.017-0.64-1.657c0.267-0.8,0.587-2.03,0.64-3.207
			c0.055-1.176,0.91-2.138,2.033-2.455c1.387-0.376,3.151-1.017,4.542-1.871c1.336-0.858,2.993-0.964,4.434-0.267
			c2.032,1.015,5.132,1.869,8.765,0.317L50.94,42.388z"/>
		<path fill="#FFD05B" d="M30.687,50.405c0.481-0.48,0.481-1.176,0-1.657l-0.694-0.694c-0.426-0.429-1.069-0.429-1.549-0.107
			l-0.427,0.376l0.586-0.59c0.535-0.534,0.535-1.496,0-2.031l-0.534-0.533c-0.534-0.534-1.441-0.534-2.03,0l-0.695,0.641
			c0.48-0.479,0.48-1.283,0-1.763l-0.856-0.854c-0.481-0.482-1.229-0.482-1.71-0.053l-2.137,1.922c0.373-0.372,0.373-0.907,0-1.283
			l-0.64-0.639c-0.375-0.376-0.909-0.376-1.284,0l-0.747,0.746c0.053,2.461,2.297,1.924,2.297,1.924
			c-0.161,2.994,3.206,2.833,3.206,2.833c-0.587,3.205,3.367,2.671,3.367,2.671c0.108,2.458,4.223,1.659,4.223,1.659l-0.536-1.659
			C30.368,50.993,30.42,50.618,30.687,50.405z"/>
	</g>
	<g>
		<path fill="#FFFFFF" d="M20.535,44.525l-0.106,0.163c-0.267,0.319-0.75,0.319-1.016,0.053l-0.374-0.321
			c-0.322-0.267-0.322-0.749-0.055-1.015l0.108-0.161c0.269-0.321,0.748-0.321,1.015-0.053l0.374,0.321
			C20.748,43.725,20.803,44.208,20.535,44.525z"/>
		<path fill="#FFFFFF" d="M25.344,45.008l-0.214,0.215c-0.373,0.428-0.962,0.479-1.39,0.106l-0.48-0.428
			c-0.427-0.376-0.482-0.962-0.106-1.389l0.161-0.214c0.373-0.429,0.962-0.481,1.388-0.107l0.481,0.427
			C25.611,43.993,25.664,44.582,25.344,45.008z"/>
		<path fill="#FFFFFF" d="M28.603,46.879l-0.159,0.213c-0.375,0.43-0.962,0.48-1.39,0.106l-0.481-0.428
			c-0.426-0.374-0.481-0.962-0.108-1.387l0.163-0.216c0.373-0.427,0.96-0.479,1.389-0.107l0.48,0.429
			C28.924,45.861,28.978,46.504,28.603,46.879z"/>
		<path fill="#FFFFFF" d="M30.526,49.335l-0.159,0.161c-0.268,0.321-0.801,0.374-1.124,0.107l-0.426-0.321
			c-0.321-0.267-0.374-0.801-0.107-1.12l0.161-0.161c0.266-0.321,0.8-0.376,1.122-0.107l0.428,0.321
			C30.74,48.481,30.794,49.016,30.526,49.335z"/>
		<path fill="#FFFFFF" d="M27.001,37.847l0.534-1.336c0.16-0.425-0.053-0.909-0.534-1.067l-1.017-0.267
			c-0.105,1.067-0.373,2.135-0.64,2.886c-0.054,0.16-0.054,0.372-0.054,0.532C25.984,38.809,26.732,38.489,27.001,37.847z"/>
		<polygon fill="#FFFFFF" points="55.269,42.709 51.742,44.259 45.383,29.405 48.055,28.069 		"/>
	</g>
	<path fill="#324A5E" d="M67.933,33.999c0-5.93-1.495-11.488-4.17-16.298l-16.778,8.23l9.673,19.665l10.741-5.611
		C67.719,38.008,67.933,36.03,67.933,33.999z"/>
	<polygon fill="#FFFFFF" points="22.617,29.405 16.26,44.259 12.73,42.709 19.946,28.069 	"/>
	<path fill="#324A5E" d="M0.067,33.999c0,2.031,0.214,4.009,0.535,5.933l10.742,5.61l9.669-19.666L4.236,17.701
		C1.566,22.511,0.067,28.069,0.067,33.999z"/>
	<g>
		<circle fill="#2B3B4E" cx="58.528" cy="40.144" r="1.604"/>
		<circle fill="#2B3B4E" cx="62.59" cy="37.955" r="1.603"/>
		<circle fill="#2B3B4E" cx="9.152" cy="40.679" r="1.604"/>
		<circle fill="#2B3B4E" cx="5.091" cy="38.488" r="1.604"/>
	</g>
</g>
</svg>
