<?xml version="1.0" encoding="utf-8"?>
<!-- Generator: Adobe Illustrator 16.0.0, SVG Export Plug-In . SVG Version: 6.00 Build 0)  -->
<!DOCTYPE svg PUBLIC "-//W3C//DTD SVG 1.1//EN" "http://www.w3.org/Graphics/SVG/1.1/DTD/svg11.dtd">
<svg version="1.1" id="Layer_1" xmlns="http://www.w3.org/2000/svg" xmlns:xlink="http://www.w3.org/1999/xlink" x="0px" y="0px"
	 width="25px" height="25px" viewBox="0 0 25 25" enable-background="new 0 0 25 25" xml:space="preserve">
<g>
	<g>
		<circle id="XMLID_1_" fill="#D94E41" cx="12.5" cy="12.5" r="12.41"/>
	</g>
	<g>
		<path fill="#D94E41" d="M4.411,13.057c-0.044,2.135,1.426,4.172,3.449,4.837c1.907,0.64,4.25,0.159,5.517-1.471
			c0.927-1.145,1.136-2.668,1.035-4.091c-1.631-0.017-3.263-0.01-4.892-0.007c-0.003,0.58,0,1.159,0.001,1.741
			c0.978,0.027,1.955,0.015,2.933,0.034c-0.248,0.844-0.809,1.633-1.662,1.938c-1.647,0.725-3.749-0.224-4.265-1.95
			c-0.626-1.655,0.397-3.651,2.088-4.133c1.048-0.369,2.128,0.048,3.024,0.592c0.455-0.425,0.88-0.878,1.298-1.339
			c-1.02-0.852-2.329-1.375-3.675-1.259C6.622,7.978,4.31,10.417,4.411,13.057z"/>
		<path fill="#D94E41" d="M17.589,10.857c-0.005,0.487-0.01,0.975-0.013,1.46c-0.488,0.005-0.975,0.007-1.461,0.01
			c0,0.487,0,0.97,0,1.458c0.486,0.003,0.977,0.005,1.461,0.01c0.005,0.485,0.005,0.973,0.01,1.46c0.484,0,0.971-0.002,1.457,0
			c0.002-0.487,0.005-0.975,0.01-1.462c0.486-0.003,0.974-0.005,1.46-0.008c0-0.487,0-0.97,0-1.458
			c-0.486-0.002-0.974-0.005-1.46-0.01c-0.003-0.485-0.008-0.973-0.01-1.46C18.557,10.857,18.072,10.857,17.589,10.857z"/>
		<g>
			<path fill="#FFFFFF" d="M4.411,13.057c-0.101-2.639,2.21-5.079,4.851-5.108c1.346-0.117,2.656,0.407,3.676,1.259
				c-0.418,0.46-0.844,0.914-1.298,1.339C10.743,10,9.664,9.586,8.616,9.955c-1.691,0.482-2.714,2.479-2.09,4.133
				c0.518,1.727,2.62,2.675,4.265,1.95c0.853-0.306,1.416-1.095,1.663-1.938c-0.978-0.02-1.955-0.007-2.933-0.034
				c-0.002-0.582-0.005-1.162-0.002-1.744c1.63-0.002,3.262-0.007,4.893,0.007c0.1,1.426-0.108,2.949-1.035,4.094
				c-1.269,1.63-3.61,2.11-5.517,1.471C5.837,17.229,4.367,15.191,4.411,13.057z"/>
			<path fill="#FFFFFF" d="M17.589,10.857c0.483,0,0.968,0,1.454,0c0.002,0.487,0.007,0.975,0.01,1.46
				c0.486,0.005,0.974,0.007,1.46,0.01c0,0.487,0,0.97,0,1.458c-0.486,0.003-0.974,0.005-1.46,0.008
				c-0.005,0.487-0.008,0.973-0.01,1.462c-0.486-0.002-0.973,0-1.457,0c-0.005-0.489-0.005-0.975-0.01-1.46
				c-0.484-0.005-0.975-0.007-1.461-0.01c0-0.487,0-0.97,0-1.458c0.486-0.002,0.973-0.005,1.461-0.01
				C17.579,11.832,17.584,11.344,17.589,10.857z"/>
		</g>
	</g>
</g>
</svg>
