<?xml version="1.0" encoding="utf-8"?>
<!-- Generator: Adobe Illustrator 16.0.0, SVG Export Plug-In . SVG Version: 6.00 Build 0)  -->
<!DOCTYPE svg PUBLIC "-//W3C//DTD SVG 1.1//EN" "http://www.w3.org/Graphics/SVG/1.1/DTD/svg11.dtd">
<svg version="1.1" id="Layer_1" xmlns="http://www.w3.org/2000/svg" xmlns:xlink="http://www.w3.org/1999/xlink" x="0px" y="0px"
	 width="25px" height="25px" viewBox="0 0 25 25" enable-background="new 0 0 25 25" xml:space="preserve">
<g>
	<circle fill="#676868" cx="12.5" cy="12.501" r="12.456"/>
	<g>
		<path fill="#F8AA1A" d="M16.635,14.418c-0.29-0.306-0.642-0.467-1.016-0.467c-0.367,0-0.725,0.159-1.025,0.467l-0.949,0.942
			c-0.079-0.038-0.158-0.08-0.233-0.119c-0.111-0.054-0.212-0.104-0.299-0.159c-0.891-0.565-1.698-1.303-2.473-2.254
			c-0.377-0.477-0.628-0.876-0.813-1.282c0.246-0.224,0.476-0.46,0.696-0.685c0.083-0.084,0.17-0.171,0.253-0.254
			c0.632-0.632,0.632-1.45,0-2.082l-0.82-0.82c-0.092-0.093-0.188-0.19-0.279-0.287C9.496,7.232,9.306,7.04,9.112,6.86
			C8.821,6.569,8.472,6.418,8.103,6.418c-0.364,0-0.72,0.151-1.02,0.442L7.076,6.866l-1.022,1.03C5.67,8.28,5.45,8.75,5.402,9.294
			c-0.072,0.878,0.186,1.696,0.386,2.231c0.487,1.315,1.214,2.533,2.299,3.835c1.316,1.571,2.899,2.813,4.711,3.69
			c0.691,0.325,1.613,0.715,2.646,0.779c0.061,0.004,0.13,0.006,0.19,0.006c0.694,0,1.278-0.248,1.732-0.745
			c0.002-0.006,0.01-0.006,0.012-0.014c0.157-0.19,0.338-0.359,0.527-0.546c0.13-0.121,0.261-0.25,0.39-0.388
			c0.297-0.309,0.455-0.67,0.455-1.04c0-0.371-0.158-0.729-0.463-1.029L16.635,14.418z M17.714,17.582
			c-0.117,0.128-0.237,0.243-0.369,0.366c-0.194,0.186-0.394,0.384-0.578,0.602c-0.305,0.325-0.661,0.479-1.133,0.479
			c-0.043,0-0.091,0-0.136,0c-0.894-0.061-1.723-0.408-2.345-0.707c-1.703-0.823-3.197-1.991-4.438-3.476
			c-1.024-1.234-1.712-2.377-2.166-3.605c-0.279-0.747-0.38-1.331-0.335-1.88c0.03-0.351,0.164-0.644,0.415-0.893l1.025-1.026
			C7.801,7.305,7.959,7.228,8.11,7.228c0.19,0,0.345,0.115,0.438,0.212c0.005,0.002,0.008,0.006,0.008,0.006
			C8.744,7.62,8.914,7.799,9.1,7.985c0.094,0.099,0.19,0.194,0.286,0.292l0.821,0.82c0.316,0.319,0.316,0.614,0,0.933
			c-0.087,0.086-0.173,0.173-0.258,0.258c-0.252,0.256-0.495,0.499-0.754,0.735c-0.007,0.004-0.012,0.008-0.014,0.014
			c-0.26,0.259-0.213,0.511-0.16,0.683c0,0,0.007,0.019,0.009,0.028c0.214,0.515,0.513,1.002,0.971,1.582l0.004,0.002
			c0.83,1.024,1.705,1.819,2.67,2.432c0.123,0.079,0.249,0.142,0.369,0.2c0.11,0.055,0.211,0.104,0.298,0.159
			c0.012,0.006,0.026,0.017,0.037,0.021c0.1,0.053,0.197,0.076,0.298,0.076c0.248,0,0.405-0.157,0.454-0.208l1.029-1.027
			c0.104-0.102,0.266-0.227,0.455-0.227c0.185,0,0.339,0.119,0.434,0.221c0,0,0.003,0.004,0.005,0.006l1.657,1.656
			C18.019,16.948,18.019,17.266,17.714,17.582z"/>
		<path fill="#F8AA1A" d="M13.079,8.981c0.786,0.133,1.502,0.507,2.072,1.076c0.57,0.572,0.942,1.289,1.077,2.076
			c0.032,0.198,0.204,0.335,0.399,0.335c0.024,0,0.045-0.004,0.068-0.006c0.223-0.034,0.371-0.246,0.336-0.468
			c-0.164-0.953-0.614-1.822-1.303-2.51c-0.688-0.689-1.558-1.139-2.51-1.301c-0.223-0.039-0.431,0.111-0.468,0.327
			C12.711,8.732,12.855,8.946,13.079,8.981z"/>
		<path fill="#F8AA1A" d="M19.605,11.877c-0.268-1.569-1.006-2.997-2.143-4.134c-1.135-1.137-2.562-1.876-4.134-2.145
			c-0.218-0.039-0.426,0.111-0.467,0.333c-0.034,0.22,0.113,0.43,0.333,0.469c1.402,0.238,2.679,0.902,3.697,1.915
			c1.015,1.016,1.677,2.292,1.914,3.696c0.034,0.2,0.204,0.335,0.399,0.335c0.026,0,0.045-0.004,0.071-0.006
			C19.495,12.307,19.645,12.095,19.605,11.877z"/>
	</g>
</g>
</svg>
