<?xml version="1.0" encoding="utf-8"?>
<!-- Generator: Adobe Illustrator 16.0.0, SVG Export Plug-In . SVG Version: 6.00 Build 0)  -->
<!DOCTYPE svg PUBLIC "-//W3C//DTD SVG 1.1//EN" "http://www.w3.org/Graphics/SVG/1.1/DTD/svg11.dtd">
<svg version="1.1" id="Layer_1" xmlns="http://www.w3.org/2000/svg" xmlns:xlink="http://www.w3.org/1999/xlink" x="0px" y="0px"
	 width="77px" height="60px" viewBox="0 0 77 60" enable-background="new 0 0 77 60" xml:space="preserve">
<g>
	<path fill="#FFFFFF" d="M48.922,0h27.939v19.827c0,8.019-0.709,14.348-2.135,18.98c-1.427,4.644-4.062,8.798-7.908,12.478
		c-3.844,3.686-8.749,6.576-14.715,8.679l-5.47-11.44c5.569-1.836,9.563-4.407,11.984-7.687c2.421-3.291,3.696-7.664,3.827-13.12
		H48.922V0z M2.288,0h27.94v19.827c0,8.087-0.71,14.426-2.139,19.037c-1.423,4.599-4.074,8.741-7.955,12.421
		c-3.875,3.686-8.764,6.576-14.665,8.679L0,48.522c5.568-1.836,9.563-4.407,11.98-7.687c2.423-3.291,3.699-7.664,3.829-13.12H2.288
		V0z"/>
</g>
</svg>
