<?xml version="1.0" encoding="utf-8"?>
<!-- Generator: Adobe Illustrator 16.0.0, SVG Export Plug-In . SVG Version: 6.00 Build 0)  -->
<!DOCTYPE svg PUBLIC "-//W3C//DTD SVG 1.1//EN" "http://www.w3.org/Graphics/SVG/1.1/DTD/svg11.dtd">
<svg version="1.1" id="Layer_1" xmlns="http://www.w3.org/2000/svg" xmlns:xlink="http://www.w3.org/1999/xlink" x="0px" y="0px"
	 width="30px" height="40.561px" viewBox="0 0 30 40.561" enable-background="new 0 0 30 40.561" xml:space="preserve">
<g>
	<path fill="#686969" d="M5.764,0c0,0,1.228,11.826,9.143,19.33l3.138,3.32c0,0,1.683,1.453,0.408,3.273
		c-1.273,1.82-3.683,3.004-2.045,9.098c0,0,1.363,3.137,5.002,2.182c0,0,2.227-0.863,3.867-2.547c0,0,0.795-0.957,1.996-0.344
		c0,0,0.67,0.615,1.148,0.242c0,0,0.137-0.242,0.351,0.078c0,0,0.236,0.408,0.31,0.574c0,0,0.663-0.621,0-1.502
		c0,0-1.098-1.574-2.476-1.303c0,0,0.528-0.562,0.208-0.799c-0.322-0.236-2.006-0.971-4.207-0.736c0,0-0.532,0.094-1.408,0.867
		c-0.873,0.773-2.201,1.619-4.828,1.006c0,0,2.348,0.232,3.441-0.598c1.094-0.832,1.838-1.518,1.838-1.518s0.264-0.336,1.225-0.381
		c0.965-0.041,2.818-0.086,4.422,1.098c0,0,0.277,0.363,0.16,0.641c0,0,0.337-0.043,0.979,0.438
		c0.643,0.479,2.071,1.707,1.356,2.846c-0.714,1.139-1.284,1.373-1.284,1.373s0.57-1.432-0.114-1.52
		c-0.687-0.086-0.891-0.133-1.272-0.32c-0.377-0.189-0.977-0.293-1.428,0.205c-0.453,0.494-2.494,2.422-2.686,5.557
		c0,0-0.103-1.736-0.671-1.705c0,0-0.176-0.074-0.745,0.377c0,0-0.378,0.25-0.756,0.104c0,0,0.713-0.408,0.584-1.021
		c0,0-0.131-0.496-0.936-0.512c-0.802-0.014-2.495,0.162-4.73-2.551c0,0-2.303-3.148-1.247-7.201c0,0,0.325-1.248,1.378-2.852
		c0,0,0.804-1.285-0.18-2.064c-0.99-0.783-7.346-6.08-9.775-10.555C5.93,12.58,0.656,5.021,5.764,0"/>
	<path fill="#686969" d="M2.204,9.887c0,0,2.426,5.717,11.943,12.99c0,0,1.449,0.799,0.616,2.285c0,0-1.556-0.436-3.513-1.486
		C9.298,22.627,0.757,18.861,2.204,9.887"/>
	<path fill="#686969" d="M0.354,17.139c0,0,4.562,5.033,9.48,6.867c0,0,4.478,1.695,4.055,3.209c0,0-0.102-0.748-4.9-1.514
		C8.989,25.701,0.134,24.955,0.354,17.139"/>
	<path fill="#686969" d="M0.012,23.201c0,0,3.27,2.662,10.749,3.67c0,0,2.603,0.121,2.703,1.373c0,0-0.767-0.586-3.348-0.141
		C7.536,28.547,1.143,28.928,0.012,23.201"/>
	<path fill="#686969" d="M1.225,28.33c0,0,2.297,4.17,6.594,2.555c4.293-1.615,4.959-2.197,5.344-1.852c0,0-0.365-1.074-2.785-0.305
		C10.377,28.729,5.096,29.969,1.225,28.33"/>
	<path fill="#686969" d="M12.838,30.139c0,0-0.258-0.426-1.994,1.117c-1.734,1.549-4.619,4.086-7.707,1.266
		c0,0,2.521,0.32,5.285-1.092C11.185,30.018,12.518,29.354,12.838,30.139"/>
	<path fill="#686969" d="M5.682,35.967c0,0,3.645-1.492,5.584-4.012c0,0,0.807-1.135,1.432-0.699c0,0-0.365-0.068-0.887,0.902
		C11.286,33.125,9.429,37.438,5.682,35.967"/>
	<path fill="#686969" d="M12.415,33.486c0,0-0.444,0.363-0.807,1.715c-0.363,1.352-1.289,3.227-3.467,2.803
		c0,0,1.551-0.928,3.082-3.287C11.223,34.717,11.852,33.506,12.415,33.486"/>
	<path fill="#686969" d="M9.996,39.535c0,0,2.28-0.338,2.419-3.264c0,0,0.001-1.514,0.283-1.475c0,0-0.344-0.24-0.728,0.975
		C11.588,36.996,11.125,38.629,9.996,39.535"/>
	<path fill="#686969" d="M13.364,35.414c0,0,0,0.836,0.277,1.74c0,0,0.253,0.533-0.139,1.137l-1.088,1.061
		c0,0,0.354-1.182,0.424-2.197C12.91,36.145,12.859,35.666,13.364,35.414"/>
	<path fill="#686969" d="M24.298,32.127c-0.573-0.328-1.847,0.184-1.847,0.184c1.08-0.697,1.979-0.43,1.979-0.43
		c0.146,0.051,0.256,0.018,0.256,0.018c-0.085-0.365-0.878-0.455-0.878-0.455c0.762-0.109,1.407,0.371,1.754,0.555
		c0.346,0.186,0.615,0.145,0.961,0.064c0.347-0.08,0.43,0.08,0.43,0.08c0.227,0.314-1.105,0.969-1.105,0.969
		c0.287-0.213,0.146-0.438,0.146-0.438c-0.205-0.084-0.398,0.074-0.398,0.074c-0.734,0.387-0.926,0.137-1.287-0.082
		c-0.363-0.221-1.401,0.035-1.401,0.035C23.27,32.254,24.298,32.127,24.298,32.127 M24.573,32.318
		c-0.036,0.262,0.071,0.357,0.071,0.357c0.205,0.287,0.514,0.176,0.514,0.176c0.441-0.104,0.316-0.533,0.316-0.533
		c-0.043-0.225-0.336-0.223-0.336-0.223c0.097,0.059,0.129,0.174,0.129,0.174c0.149,0.354-0.182,0.428-0.182,0.428
		c-0.219,0.049-0.285-0.117-0.285-0.117c-0.18-0.299,0.125-0.484,0.125-0.484C24.628,32.057,24.573,32.318,24.573,32.318"/>
</g>
</svg>
