<?xml version="1.0" encoding="utf-8"?>
<!-- Generator: Adobe Illustrator 16.0.0, SVG Export Plug-In . SVG Version: 6.00 Build 0)  -->
<!DOCTYPE svg PUBLIC "-//W3C//DTD SVG 1.1//EN" "http://www.w3.org/Graphics/SVG/1.1/DTD/svg11.dtd">
<svg version="1.1" id="Layer_1" xmlns="http://www.w3.org/2000/svg" xmlns:xlink="http://www.w3.org/1999/xlink" x="0px" y="0px"
	 width="68px" height="68px" viewBox="0 0 68 68" enable-background="new 0 0 68 68" xml:space="preserve">
<g>
	<circle fill="#676868" cx="34" cy="34" r="33.988"/>
	<path fill="#231F20" d="M67.591,39.197L42.983,14.588l-0.012-0.01h-17.95l-3.262,5.714h-1.213v2.449l-0.419,1.306l1.904,1.901
		l1.768,12.38l0.509,3.669h0.015l1.517,10.608l0.407,0.409v0.407h0.006l13.983,13.985C54.352,64.789,65.404,53.457,67.591,39.197z"
		/>
	<polygon fill="#FAAD1D" points="42.161,52.605 25.841,52.605 21.76,24.045 46.241,24.045 	"/>
	<polygon fill="#34495E" points="43.692,41.997 24.309,41.997 23.29,34.654 44.712,34.654 	"/>
	<g>
		<polygon fill="#FFFFFF" points="42.976,14.579 25.024,14.579 21.76,20.291 46.241,20.291 		"/>
		<polygon fill="#FFFFFF" points="47.451,22.74 20.549,22.74 20.128,24.045 47.874,24.045 		"/>
	</g>
	<rect x="20.549" y="20.291" fill="#34495E" width="26.902" height="2.449"/>
	<path fill="#FFFFFF" d="M40.936,38.324c0,3.831-3.106,6.938-6.934,6.938c-3.833,0-6.938-3.107-6.938-6.938
		c0-3.827,3.105-6.936,6.938-6.936C37.829,31.389,40.936,34.497,40.936,38.324z"/>
	<g>
		<path fill="#34495E" d="M34.001,32.258c-3.354,0-6.072,2.717-6.072,6.066c0,3.354,2.717,6.07,6.072,6.07
			c3.35,0,6.069-2.717,6.069-6.07C40.07,34.975,37.352,32.258,34.001,32.258z M34.001,44.047c-3.156,0-5.724-2.564-5.724-5.723
			c0-3.155,2.568-5.722,5.724-5.722c3.152,0,5.72,2.567,5.72,5.722C39.722,41.482,37.153,44.047,34.001,44.047z"/>
		<rect x="26.248" y="52.605" fill="#34495E" width="15.504" height="0.816"/>
	</g>
</g>
</svg>
