<?xml version="1.0" encoding="utf-8"?>
<!-- Generator: Adobe Illustrator 16.0.0, SVG Export Plug-In . SVG Version: 6.00 Build 0)  -->
<!DOCTYPE svg PUBLIC "-//W3C//DTD SVG 1.1//EN" "http://www.w3.org/Graphics/SVG/1.1/DTD/svg11.dtd">
<svg version="1.1" id="Layer_1" xmlns="http://www.w3.org/2000/svg" xmlns:xlink="http://www.w3.org/1999/xlink" x="0px" y="0px"
	 width="60px" height="60px" viewBox="0 0 60 60" enable-background="new 0 0 60 60" xml:space="preserve">
<g>
	<path fill="#FAAD1D" d="M47.403,27.1h-8.7v-2.9c0-2.665-2.168-4.833-4.833-4.833H18.403c-2.666,0-4.833,2.168-4.833,4.833v2.9
		H9.704v-9.667H7.771v-11.6h1.934v-5.8H3.903v5.8h1.934v11.6H3.903v9.764C1.7,27.646,0.037,29.6,0.037,31.935V53.2
		c0,3.731,3.036,6.766,6.767,6.766H45.47c3.73,0,6.767-3.034,6.767-6.766V31.935C52.236,29.268,50.068,27.1,47.403,27.1z
		 M15.503,24.2c0-1.599,1.301-2.899,2.9-2.899H33.87c1.599,0,2.899,1.3,2.899,2.899v6.766h-1.935v-7.733H17.437v7.733h-1.934V24.2z
		 M32.903,25.167V27.1H19.37v-1.934H32.903z M5.837,1.967h1.934V3.9H5.837V1.967z M5.837,19.367h1.934V27.1H5.837V19.367z
		 M50.303,34.833H29.036v1.934h21.267V53.2c0,2.665-2.168,4.832-4.833,4.832H6.804c-2.666,0-4.834-2.167-4.834-4.832V36.767h21.268
		v-1.934H1.97v-2.898c0-1.599,1.302-2.901,2.9-2.901h8.7v1.932h-0.967v1.934h7.732v-1.934H19.37v-1.932h13.533v1.932h-0.967v1.934
		h7.733v-1.934h-0.967v-1.932h8.7c1.598,0,2.899,1.302,2.899,2.901V34.833z"/>
	<path fill="#FAAD1D" d="M12.604,38.7c-4.798,0-8.7,3.902-8.7,8.699c0,4.799,3.902,8.701,8.7,8.701c4.797,0,8.7-3.902,8.7-8.701
		C21.304,42.603,17.4,38.7,12.604,38.7z M5.858,47.821l6.324,6.324C8.788,53.936,6.068,51.216,5.858,47.821z M14.627,53.856
		l-8.48-8.48c0.232-0.737,0.592-1.415,1.044-2.021l9.458,9.456C16.043,53.265,15.365,53.626,14.627,53.856z M18.015,51.443
		l-9.457-9.456c0.606-0.453,1.284-0.813,2.021-1.044l8.482,8.481C18.829,50.161,18.467,50.839,18.015,51.443z M13.024,40.654
		c3.395,0.211,6.113,2.93,6.325,6.324L13.024,40.654z"/>
	<path fill="#FAAD1D" d="M39.67,56.101c4.798,0,8.7-3.902,8.7-8.701c0-4.797-3.902-8.699-8.7-8.699
		c-4.797,0-8.699,3.902-8.699,8.699C30.971,52.198,34.873,56.101,39.67,56.101z M46.415,46.979l-6.324-6.324
		C43.485,40.865,46.203,43.584,46.415,46.979z M34.26,43.355l6.659,6.66l1.367-1.365l-6.66-6.663
		c0.604-0.453,1.282-0.813,2.021-1.044l8.479,8.481c-0.231,0.736-0.592,1.416-1.045,2.021l-1.827-1.828l-1.367,1.367l1.827,1.829
		c-0.604,0.453-1.284,0.812-2.021,1.045l-8.481-8.482C33.444,44.639,33.806,43.961,34.26,43.355z M39.248,54.146
		c-3.395-0.21-6.112-2.93-6.323-6.324L39.248,54.146z"/>
	<path fill="#FAAD1D" d="M26.137,40.634c-1.599,0-2.899,1.302-2.899,2.9c0,1.598,1.3,2.898,2.899,2.898s2.899-1.301,2.899-2.898
		C29.036,41.936,27.736,40.634,26.137,40.634z M26.137,44.499c-0.534,0-0.967-0.432-0.967-0.965c0-0.535,0.433-0.967,0.967-0.967
		c0.533,0,0.966,0.432,0.966,0.967C27.103,44.067,26.669,44.499,26.137,44.499z"/>
	<path fill="#FAAD1D" d="M47.403,13.566c1.598,0,2.899-1.3,2.899-2.899c0-1.599-1.302-2.9-2.899-2.9c-1.6,0-2.9,1.301-2.9,2.9
		C44.503,12.266,45.804,13.566,47.403,13.566z M47.403,9.701c0.534,0,0.967,0.433,0.967,0.966c0,0.533-0.433,0.966-0.967,0.966
		c-0.535,0-0.967-0.433-0.967-0.966C46.437,10.133,46.868,9.701,47.403,9.701z"/>
	<path fill="#FAAD1D" d="M41.251,16.819l1.366-1.367c-2.638-2.638-2.638-6.932,0-9.57l-1.366-1.368
		C37.858,7.908,37.858,13.426,41.251,16.819z"/>
	<path fill="#FAAD1D" d="M53.555,4.515l-1.366,1.368c2.637,2.638,2.637,6.932,0,9.57l1.366,1.367
		C56.946,13.426,56.946,7.908,53.555,4.515z"/>
	<path fill="#FAAD1D" d="M39.884,18.185c-4.146-4.146-4.146-10.892,0-15.038L38.518,1.78c-4.899,4.899-4.899,12.872,0,17.772
		L39.884,18.185z"/>
	<path fill="#FAAD1D" d="M56.288,1.781l-1.367,1.367c4.147,4.146,4.147,10.892,0,15.038l1.367,1.367
		C61.188,14.653,61.188,6.68,56.288,1.781z"/>
	<rect x="25.17" y="34.833" fill="#FAAD1D" width="1.933" height="1.934"/>
	<rect x="25.17" y="48.366" fill="#FAAD1D" width="1.933" height="1.934"/>
	<rect x="25.17" y="52.233" fill="#FAAD1D" width="1.933" height="1.934"/>
</g>
</svg>
