<?xml version="1.0" encoding="utf-8"?>
<!-- Generator: Adobe Illustrator 16.0.0, SVG Export Plug-In . SVG Version: 6.00 Build 0)  -->
<!DOCTYPE svg PUBLIC "-//W3C//DTD SVG 1.1//EN" "http://www.w3.org/Graphics/SVG/1.1/DTD/svg11.dtd">
<svg version="1.1" id="Layer_1" xmlns="http://www.w3.org/2000/svg" xmlns:xlink="http://www.w3.org/1999/xlink" x="0px" y="0px"
	 width="60px" height="60px" viewBox="0 0 60 60" enable-background="new 0 0 60 60" xml:space="preserve">
<g>
	<path fill="#FAAD1D" d="M54.744,2.969h-6.473c-0.484,0-0.876,0.393-0.876,0.877c0,0.484,0.392,0.877,0.876,0.877h6.473
		c1.889,0,3.427,1.538,3.427,3.427v2.137h-6.396c-0.483,0-0.878,0.392-0.878,0.877v26.771H34.711v-8.853
		c0-0.798-0.197-1.564-0.574-2.252c1.197-1.111,1.946-2.696,1.946-4.454c0-0.433-0.092-0.921-0.252-1.447
		c-0.009-0.029-0.018-0.058-0.026-0.086c-0.004-0.011-0.008-0.021-0.013-0.032c-0.73-2.257-2.711-5.185-4.43-7.46
		c-0.324-0.432-0.822-0.679-1.363-0.679s-1.038,0.247-1.362,0.679c-2.154,2.851-4.72,6.731-4.72,9.025
		c0,1.758,0.749,3.344,1.946,4.455c-0.376,0.688-0.575,1.459-0.575,2.251v8.853H1.829v-13.79c1.866,1.609,3.013,3.944,3.111,6.434
		c-1.04,0.365-1.788,1.356-1.788,2.521c0,1.472,1.198,2.671,2.671,2.671c1.473,0,2.672-1.199,2.672-2.671
		c0-1.169-0.755-2.164-1.801-2.525c-0.116-3.466-1.93-6.686-4.823-8.59h7.576c0.364,1.044,1.357,1.794,2.523,1.794
		c1.473,0,2.672-1.198,2.672-2.67c0-1.474-1.199-2.672-2.672-2.672c-1.166,0-2.16,0.751-2.523,1.795H1.829V8.15
		c0-1.89,1.538-3.427,3.427-3.427h39.437c0.481,0,0.876-0.393,0.876-0.877c0-0.484-0.395-0.877-0.876-0.877H5.256
		c-2.856,0-5.181,2.324-5.181,5.181v36.806c0,1.534,1.248,2.781,2.781,2.781h7.158c0.484,0,0.877-0.392,0.877-0.877
		c0-0.484-0.393-0.877-0.877-0.877H2.856c-0.565,0-1.027-0.46-1.027-1.027v-5.268h56.342v5.268c0,0.567-0.461,1.027-1.028,1.027
		h-4.04c-0.484,0-0.876,0.393-0.876,0.877c0,0.485,0.392,0.877,0.876,0.877h4.04c1.535,0,2.781-1.247,2.781-2.781V8.15
		C59.924,5.293,57.601,2.969,54.744,2.969z M5.824,32.183c0.506,0,0.918,0.412,0.918,0.919c0,0.506-0.412,0.918-0.918,0.918
		s-0.917-0.412-0.917-0.918C4.906,32.595,5.317,32.183,5.824,32.183z M11.971,20.192c0.506,0,0.918,0.411,0.918,0.918
		c0,0.505-0.412,0.918-0.918,0.918s-0.917-0.413-0.917-0.918C11.054,20.603,11.465,20.192,11.971,20.192z M30,14.456
		c1.803,2.391,3.144,4.548,3.825,6.112c-3.274,0.857-5.669-0.203-7.063-1.192C27.51,17.981,28.621,16.288,30,14.456z M32.957,37.935
		h-5.915v-8.852c0-0.435,0.095-0.859,0.276-1.249c0.809,0.4,1.719,0.625,2.681,0.625c0.962,0,1.872-0.225,2.681-0.623
		c0.18,0.387,0.276,0.809,0.276,1.246V37.935z M30,26.706c-2.386,0-4.329-1.942-4.329-4.33c0-0.353,0.116-0.825,0.334-1.391
		c1.255,0.836,3.09,1.66,5.442,1.66c0.887,0,1.849-0.118,2.878-0.394c0.002,0.044,0.005,0.084,0.005,0.125
		C34.33,24.764,32.388,26.706,30,26.706z M58.171,37.935h-5.519v-0.532h1.567c0.481,0,0.876-0.393,0.876-0.877
		c0-0.483-0.395-0.876-0.876-0.876h-1.567v-1.283h1.567c0.481,0,0.876-0.394,0.876-0.877c0-0.484-0.395-0.877-0.876-0.877h-1.567
		v-1.283h1.567c0.481,0,0.876-0.393,0.876-0.876s-0.395-0.876-0.876-0.876h-1.567v-1.283h2.758c0.484,0,0.878-0.393,0.878-0.877
		s-0.394-0.878-0.878-0.878h-2.758v-1.283h1.567c0.481,0,0.876-0.392,0.876-0.876c0-0.484-0.395-0.877-0.876-0.877h-1.567V22.22
		h1.567c0.481,0,0.876-0.392,0.876-0.877c0-0.485-0.395-0.876-0.876-0.876h-1.567v-1.283h1.567c0.481,0,0.876-0.393,0.876-0.877
		s-0.395-0.877-0.876-0.877h-1.567v-1.284h2.758c0.484,0,0.878-0.392,0.878-0.875c0-0.485-0.394-0.877-0.878-0.877h-2.758V12.04
		h5.519V37.935z"/>
	<path fill="#FAAD1D" d="M49.524,45.983H13.593c-0.485,0-0.877,0.393-0.877,0.877c0,0.485,0.392,0.877,0.877,0.877h8.493
		c-0.573,1.945-1.719,4.336-4.015,6.077c-0.623,0.472-0.863,1.256-0.615,1.996c0.25,0.741,0.917,1.221,1.698,1.221h21.69
		c0.779,0,1.447-0.479,1.695-1.221c0.251-0.74,0.009-1.524-0.612-1.996c-2.297-1.743-3.445-4.14-4.017-6.077h11.612
		c0.483,0,0.875-0.392,0.875-0.877C50.399,46.376,50.008,45.983,49.524,45.983z M40.869,55.211c0.011,0.009,0.015,0.015,0.015,0.015
		c0.002,0.013-0.006,0.042-0.017,0.05c0,0-0.007,0.002-0.021,0.002h-21.69c-0.015,0-0.021-0.002-0.021-0.002
		c-0.011-0.008-0.021-0.038-0.019-0.049c0,0,0.004-0.007,0.016-0.016c2.866-2.175,4.176-5.18,4.776-7.474h12.186
		C36.689,50.02,37.998,53.032,40.869,55.211z"/>
	<path fill="#FAAD1D" d="M24.608,8.454V8.65c0,0.484,0.392,0.876,0.877,0.876c0.484,0,0.875-0.392,0.875-0.876V8.454
		c0-0.484-0.392-0.876-0.875-0.876C25,7.577,24.608,7.97,24.608,8.454z"/>
	<path fill="#FAAD1D" d="M29.123,8.454V8.65c0,0.484,0.394,0.876,0.877,0.876c0.485,0,0.878-0.392,0.878-0.876V8.454
		c0-0.484-0.393-0.876-0.878-0.876C29.517,7.577,29.123,7.97,29.123,8.454z"/>
	<path fill="#FAAD1D" d="M33.641,8.454V8.65c0,0.484,0.392,0.876,0.875,0.876c0.484,0,0.876-0.392,0.876-0.876V8.454
		c0-0.484-0.392-0.876-0.876-0.876C34.032,7.577,33.641,7.97,33.641,8.454z"/>
	<path fill="#FAAD1D" d="M32.182,42.836c0-1.203-0.979-2.182-2.182-2.182c-1.202,0-2.183,0.979-2.183,2.182
		c0,1.204,0.981,2.184,2.183,2.184C31.203,45.02,32.182,44.039,32.182,42.836z M29.57,42.836c0-0.236,0.192-0.43,0.429-0.43
		s0.43,0.193,0.43,0.43c0,0.237-0.193,0.431-0.43,0.431S29.57,43.073,29.57,42.836z"/>
</g>
</svg>
