<?xml version="1.0" encoding="utf-8"?>
<!-- Generator: Adobe Illustrator 16.0.0, SVG Export Plug-In . SVG Version: 6.00 Build 0)  -->
<!DOCTYPE svg PUBLIC "-//W3C//DTD SVG 1.1//EN" "http://www.w3.org/Graphics/SVG/1.1/DTD/svg11.dtd">
<svg version="1.1" id="Layer_1" xmlns="http://www.w3.org/2000/svg" xmlns:xlink="http://www.w3.org/1999/xlink" x="0px" y="0px"
	 width="68px" height="68px" viewBox="0 0 68 68" enable-background="new 0 0 68 68" xml:space="preserve">
<g id="Strategy_1_">
	<g id="trophy_1_">
		<path fill="#676868" d="M67.926,33.999c0,13.518-7.906,25.189-19.348,30.645c-1.406,0.672-2.869-1.068-4.375-0.594
			c-1.588,0.5-3.225,3.199-4.904,3.463c-1.725,0.271-3.496,0.412-5.299,0.412c-1.756,0-3.481-0.133-5.166-0.391
			c-1.586-0.244-3.003-2.799-4.506-3.254c-1.602-0.48-3.283,1.127-4.772,0.426C8.041,59.278,0.075,47.571,0.075,33.999
			C0.075,15.265,15.264,0.075,34,0.075C52.736,0.075,67.926,15.265,67.926,33.999z"/>
		<path fill="#BFA072" d="M20.616,36.12c0.812,0,0.795,0.596,0.795,0.596v0.729v0.268v3.576c0,0.146,0.088,0.344,0.197,0.445
			l1.724,2.438c0.108,0.1,0.495,0.475,0.596,0.58l1.095,0.844c0.099,0.107,0.259-0.279,0.292-0.139l0.893,3.727
			c0.033,0.139,0.017,0.365-0.04,0.5l-0.606-0.842c-0.055,0.137-0.814,0.51-0.909,0.398l-2.141-0.791
			c-0.095-0.111-0.189-0.32-0.211-0.465l-0.36-2.422c-0.021-0.145-0.099-0.367-0.173-0.49l-1.812-3.088
			c-0.072-0.129-0.135-0.352-0.135-0.496v-3.775v-0.268v-0.795C19.819,36.649,19.803,36.12,20.616,36.12z"/>
		<path fill="#C9A978" d="M19.688,35.456c0.81,0,0.796,0.598,0.796,0.598v0.73v0.262v3.58c0,0.146,0.087,0.346,0.194,0.443
			l1.727,2.439c0.105,0.098,0.496,0.475,0.595,0.578l1.095,0.846c0.099,0.107,0.26-0.281,0.291-0.139l0.893,3.725
			c0.035,0.143,0.018,0.367-0.038,0.504l0.455,0.768c-0.056,0.137-2.095-2.01-1.811-0.285l-2.303-1.719
			c-0.095-0.111-0.189-0.32-0.211-0.465l-0.36-2.422c-0.021-0.145-0.101-0.365-0.174-0.49l-1.812-3.09
			c-0.073-0.127-0.132-0.348-0.132-0.496v-3.777v-0.262v-0.797C18.893,35.987,18.876,35.456,19.688,35.456z"/>
		<path fill="#D4B17E" d="M18.363,34.53c0.812,0,0.796,0.596,0.796,0.596v0.729v0.266v3.578c0,0.146,0.088,0.344,0.197,0.443
			l1.723,2.438c0.109,0.1,0.497,0.477,0.598,0.58l1.092,0.846c0.102,0.105,0.26-0.281,0.295-0.139l0.89,3.725
			c0.034,0.143,0.016,0.367-0.037,0.504l0.056,1.676c-0.056,0.135-0.814,0.508-0.91,0.398l-2.804-3.311
			c-0.096-0.113-0.188-0.32-0.212-0.465l-0.359-2.422c-0.021-0.145-0.1-0.363-0.173-0.492l-1.812-3.088
			c-0.074-0.127-0.134-0.35-0.134-0.496V36.12v-0.266v-0.793C17.568,35.062,17.551,34.53,18.363,34.53z"/>
		<path fill="#BFA072" d="M47.516,36.12c-0.811,0-0.793,0.596-0.793,0.596v0.729v0.268v3.576c0,0.146-0.09,0.344-0.197,0.445
			l-1.725,2.438c-0.109,0.1-0.498,0.475-0.596,0.58l-1.094,0.844c-0.102,0.107-0.26-0.279-0.295-0.139l-0.891,3.727
			c-0.035,0.139-0.016,0.365,0.039,0.5l0.605-0.842c0.055,0.137,0.814,0.51,0.91,0.398l2.143-0.791
			c0.094-0.111,0.188-0.32,0.209-0.465l0.361-2.422c0.021-0.145,0.1-0.367,0.172-0.49l1.812-3.088
			c0.074-0.129,0.135-0.352,0.135-0.496v-3.775v-0.268v-0.795C48.312,36.649,48.328,36.12,47.516,36.12z"/>
		<path fill="#C9A978" d="M48.443,35.456c-0.811,0-0.793,0.598-0.793,0.598v0.73v0.262v3.58c0,0.146-0.09,0.346-0.199,0.443
			l-1.725,2.439c-0.107,0.098-0.494,0.475-0.596,0.578l-1.092,0.846c-0.102,0.107-0.26-0.281-0.295-0.139l-0.889,3.725
			c-0.035,0.143-0.018,0.367,0.037,0.504l-0.455,0.768c0.057,0.137,2.094-2.01,1.811-0.285l2.303-1.719
			c0.094-0.111,0.189-0.32,0.209-0.465l0.361-2.422c0.023-0.145,0.1-0.365,0.174-0.49l1.811-3.09
			c0.074-0.127,0.133-0.348,0.133-0.496v-3.777v-0.262v-0.797C49.238,35.987,49.256,35.456,48.443,35.456z"/>
		<path fill="#D4B17E" d="M49.77,34.53c-0.812,0-0.795,0.596-0.795,0.596v0.729v0.266v3.578c0,0.146-0.09,0.344-0.197,0.443
			l-1.725,2.438c-0.105,0.1-0.496,0.477-0.596,0.58l-1.094,0.846c-0.1,0.105-0.26-0.281-0.295-0.139l-0.889,3.725
			c-0.035,0.143-0.018,0.367,0.039,0.504l-0.057,1.676c0.055,0.135,0.814,0.508,0.908,0.398l2.803-3.311
			c0.096-0.113,0.193-0.32,0.213-0.465l0.359-2.422c0.023-0.145,0.1-0.363,0.176-0.492l1.809-3.088
			c0.074-0.127,0.135-0.35,0.135-0.496V36.12v-0.266v-0.793C50.564,35.062,50.582,34.53,49.77,34.53z"/>
		<g>
			<g>
				<path fill="#F59D00" d="M26.728,27.847c-5.004,0-8.731-2.949-10.778-8.529c-1.491-4.064-1.562-8.062-1.564-8.23
					c-0.003-0.248,0.095-0.488,0.27-0.664c0.173-0.178,0.412-0.279,0.659-0.279h8.613c0.514,0,0.93,0.418,0.93,0.93
					s-0.416,0.93-0.93,0.93h-7.634c0.108,1.377,0.435,4.064,1.412,6.713c1.783,4.83,4.817,7.277,9.023,7.277
					c0.512,0,0.926,0.414,0.926,0.926C27.655,27.433,27.241,27.847,26.728,27.847z"/>
			</g>
			<g>
				<path fill="#E87E04" d="M41.271,27.847c-0.512,0-0.928-0.414-0.928-0.928c0-0.512,0.416-0.926,0.928-0.926
					c4.217,0,7.256-2.461,9.037-7.316c0.971-2.643,1.291-5.309,1.398-6.674h-7.635c-0.514,0-0.93-0.418-0.93-0.93
					s0.416-0.93,0.93-0.93h8.613c0.248,0,0.486,0.102,0.658,0.279c0.176,0.176,0.273,0.416,0.271,0.664
					c-0.004,0.168-0.074,4.166-1.564,8.23C50.004,24.897,46.275,27.847,41.271,27.847z"/>
			</g>
			<path fill="#F4CC20" d="M34,7.231h-11.53c0,0,0,23.324,9.676,23.324v3.957L34,34.663V7.231z"/>
			<path fill="#F59D00" d="M34,7.231h11.53c0,0,0,23.324-9.674,23.324v3.957L34,34.663V7.231z"/>
			<path fill="#33495F" d="M47.65,47.651c0,0.584-0.479,1.059-1.062,1.059H21.542c-0.582,0-1.059-0.475-1.059-1.059v-9.939
				c0-0.584,0.477-1.062,1.059-1.062h25.045c0.584,0,1.062,0.479,1.062,1.062V47.651z"/>
			<path fill="#ECF0F1" d="M44.469,45.132c0,0.291-0.238,0.529-0.529,0.529H24.193c-0.292,0-0.53-0.238-0.53-0.529V40.36
				c0-0.291,0.238-0.529,0.53-0.529h19.747c0.291,0,0.529,0.238,0.529,0.529V45.132z"/>
			<path fill="#2B3E51" d="M46.588,36.649H34V48.71h12.588c0.584,0,1.062-0.475,1.062-1.059v-9.939
				C47.65,37.128,47.172,36.649,46.588,36.649z"/>
			<path fill="#F4CC20" d="M34,36.649v-1.455h-6.626c0,0-3.446,0.75-3.446,1.504L34,36.649z"/>
			<rect x="28.963" y="33.999" fill="#F59D00" width="5.036" height="1.195"/>
			<path fill="#F59D00" d="M34,36.649v-1.455h6.627c0,0,3.445,0.75,3.445,1.504L34,36.649z"/>
			<rect x="34" y="33.999" fill="#E87E04" width="5.036" height="1.195"/>
			<path fill="#BDC3C7" d="M43.939,39.831H34v5.83h9.94c0.291,0,0.529-0.238,0.529-0.529V40.36
				C44.469,40.069,44.23,39.831,43.939,39.831z"/>
		</g>
		<rect x="39.963" y="54.144" fill="#ECF0F1" width="7.951" height="1.854"/>
		<rect x="39.963" y="54.144" fill="#BDC3C7" width="3.977" height="1.854"/>
		<path fill="#33495F" d="M39.299,67.513c3.271-0.514,6.389-1.494,9.279-2.873v-8.643h-9.279V67.513z"/>
		<path fill="#2B3E51" d="M39.299,67.513c1.586-0.248,3.135-0.607,4.641-1.068V55.997h-4.641V67.513z"/>
		<g>
			<path fill="#F4CC20" d="M39.234,27.239c-0.125,0-0.25-0.041-0.352-0.129c-0.219-0.195-0.238-0.529-0.045-0.748
				c1.746-1.988,2.658-5.023,3.117-7.221c0.059-0.287,0.342-0.471,0.627-0.412c0.287,0.062,0.471,0.342,0.412,0.629
				c-0.488,2.32-1.463,5.545-3.361,7.703C39.527,27.179,39.381,27.239,39.234,27.239z"/>
		</g>
		<g>
			<path fill="#F4CC20" d="M42.941,16.786c-0.018,0-0.033-0.002-0.055-0.004c-0.291-0.029-0.502-0.291-0.471-0.582
				c0.051-0.488,0.066-0.779,0.066-0.781c0.016-0.293,0.266-0.521,0.557-0.502c0.293,0.016,0.518,0.266,0.502,0.559
				c0,0.014-0.018,0.318-0.072,0.834C43.441,16.581,43.211,16.786,42.941,16.786z"/>
		</g>
		<path fill="#ECF0F1" d="M46.684,41.306c0.289,0,0.527,0.236,0.527,0.529c0,0.291-0.238,0.525-0.527,0.525
			c-0.295,0-0.529-0.234-0.529-0.525C46.154,41.542,46.389,41.306,46.684,41.306z"/>
		<path fill="#E5BF88" d="M50.963,35.062c-0.812,0-0.795,0.596-0.795,0.596v0.727v0.266v3.578c0,0.146-0.09,0.346-0.195,0.441
			l-1.725,2.441c-0.111,0.098-0.455,0.834-0.555,0.939l-0.463,0.197l0.129-2.188c0,0,0.309-0.932-0.605-0.932
			s-0.871,0.818-0.871,0.818l-0.512,2.576c0,0-3.873,0.344-2.311,4.188h-3.627l1.986,1.988v3.445h4.904v-3.445l2.775-3.311
			c0.094-0.111,0.172-0.32,0.193-0.465l0.354-2.422c0.021-0.145,0.096-0.365,0.17-0.49l1.809-3.09
			c0.074-0.125,0.131-0.348,0.131-0.492v-3.779v-0.266v-0.793C51.756,35.591,51.773,35.062,50.963,35.062z"/>
		<polygon fill="#BFA072" points="43.061,48.71 39.434,48.71 40.594,49.87 		"/>
		<path fill="#ECF0F1" d="M46.684,41.306c0.289,0,0.527,0.236,0.527,0.529c0,0.291-0.238,0.525-0.527,0.525
			c-0.295,0-0.529-0.234-0.529-0.525C46.154,41.542,46.389,41.306,46.684,41.306z"/>
		<rect x="20.219" y="54.144" fill="#BDC3C7" width="7.95" height="1.854"/>
		<rect x="24.193" y="54.144" fill="#ECF0F1" width="3.977" height="1.854"/>
		<path fill="#2B3E51" d="M19.555,64.704c2.892,1.363,6.006,2.332,9.276,2.83V55.997h-9.276V64.704z"/>
		<path fill="#33495F" d="M24.193,66.481c1.505,0.457,3.053,0.809,4.639,1.053V55.997h-4.639V66.481z"/>
		<path fill="#ECF0F1" d="M21.448,41.306c0.294,0,0.53,0.236,0.53,0.529c0,0.291-0.236,0.525-0.53,0.525
			c-0.29,0-0.527-0.234-0.527-0.525C20.92,41.542,21.158,41.306,21.448,41.306z"/>
		<path fill="#E5BF88" d="M17.17,35.062c0.812,0,0.794,0.596,0.794,0.596v0.727v0.266v3.578c0,0.146,0.089,0.346,0.198,0.441
			l1.723,2.441c0.109,0.098,0.452,0.834,0.554,0.939l0.462,0.197l-0.128-2.188c0,0-0.307-0.932,0.606-0.932s0.87,0.818,0.87,0.818
			l0.513,2.576c0,0,3.873,0.344,2.31,4.188H28.7l-1.989,1.988v3.445h-4.904v-3.445l-2.772-3.311
			c-0.096-0.111-0.173-0.32-0.194-0.465l-0.354-2.422c-0.021-0.145-0.098-0.365-0.171-0.49l-1.809-3.09
			c-0.073-0.125-0.132-0.348-0.132-0.492v-3.779v-0.266v-0.793C16.375,35.591,16.358,35.062,17.17,35.062z"/>
		<polygon fill="#BFA072" points="25.072,48.71 28.7,48.71 27.54,49.87 		"/>
		<path fill="#ECF0F1" d="M21.448,41.306c0.294,0,0.53,0.236,0.53,0.529c0,0.291-0.236,0.525-0.53,0.525
			c-0.29,0-0.527-0.234-0.527-0.525C20.92,41.542,21.158,41.306,21.448,41.306z"/>
	</g>
</g>
</svg>
