<?xml version="1.0" encoding="utf-8"?>
<!-- Generator: Adobe Illustrator 16.0.0, SVG Export Plug-In . SVG Version: 6.00 Build 0)  -->
<!DOCTYPE svg PUBLIC "-//W3C//DTD SVG 1.1//EN" "http://www.w3.org/Graphics/SVG/1.1/DTD/svg11.dtd">
<svg version="1.1" id="Layer_1" xmlns="http://www.w3.org/2000/svg" xmlns:xlink="http://www.w3.org/1999/xlink" x="0px" y="0px"
	 width="25px" height="25px" viewBox="0 0 25 25" enable-background="new 0 0 25 25" xml:space="preserve">
<g>
	<circle fill="#676868" cx="12.5" cy="12.501" r="12.41"/>
	<g>
		<g>
			<path fill="#F6A91B" d="M18.252,19.676l-2.035-4.301c-0.039-0.088-0.11-0.153-0.194-0.19l-1.012-0.45l1.752-2.938
				c0.004-0.008,0.006-0.016,0.013-0.022c0.35-0.682,0.524-1.417,0.524-2.185c0-1.296-0.507-2.509-1.429-3.418
				c-0.923-0.91-2.143-1.398-3.438-1.383c-1.258,0.018-2.445,0.523-3.338,1.425C8.203,7.112,7.708,8.302,7.7,9.559
				c-0.004,0.769,0.175,1.538,0.525,2.215c0.004,0.006,0.008,0.014,0.01,0.022l1.756,2.938l-1.018,0.453
				c-0.086,0.036-0.151,0.102-0.191,0.188L6.75,19.676c-0.068,0.146-0.04,0.316,0.071,0.429c0.11,0.113,0.282,0.147,0.426,0.084
				l2.548-1.136l2.551,1.136c0.097,0.043,0.211,0.043,0.311,0l2.545-1.136l2.547,1.136c0.055,0.021,0.107,0.031,0.159,0.031
				c0.099,0,0.198-0.038,0.271-0.115C18.29,19.992,18.318,19.821,18.252,19.676z M8.897,11.417c-0.292-0.575-0.441-1.2-0.438-1.854
				c0.016-2.183,1.801-3.982,3.984-4.012c1.09-0.016,2.119,0.396,2.893,1.161c0.777,0.766,1.202,1.787,1.202,2.877
				c0,0.644-0.147,1.258-0.438,1.827l-3.273,5.489c-0.099,0.17-0.262,0.185-0.326,0.185c-0.066,0-0.229-0.015-0.328-0.185
				L8.897,11.417z M15.36,18.288c-0.103-0.044-0.213-0.044-0.312,0l-2.547,1.135l-2.552-1.135c-0.096-0.044-0.209-0.044-0.308,0
				l-1.767,0.784l1.538-3.247l0.97-0.431l1.137,1.903c0.209,0.348,0.575,0.556,0.982,0.556c0.405,0,0.772-0.208,0.98-0.556
				l1.135-1.903l0.974,0.433l1.535,3.245L15.36,18.288z"/>
			<path fill="#F6A91B" d="M13.844,10.253c0-0.741-0.604-1.342-1.343-1.342c-0.741,0-1.342,0.601-1.342,1.342
				c0,0.738,0.601,1.342,1.342,1.342C13.24,11.596,13.844,10.992,13.844,10.253z M11.747,10.253c0-0.417,0.335-0.755,0.754-0.755
				c0.415,0,0.752,0.338,0.752,0.755s-0.338,0.752-0.752,0.752C12.082,11.006,11.747,10.67,11.747,10.253z"/>
		</g>
	</g>
</g>
</svg>
