<?xml version="1.0" encoding="utf-8"?>
<!-- Generator: Adobe Illustrator 16.0.0, SVG Export Plug-In . SVG Version: 6.00 Build 0)  -->
<!DOCTYPE svg PUBLIC "-//W3C//DTD SVG 1.1//EN" "http://www.w3.org/Graphics/SVG/1.1/DTD/svg11.dtd">
<svg version="1.1" id="Layer_1" xmlns="http://www.w3.org/2000/svg" xmlns:xlink="http://www.w3.org/1999/xlink" x="0px" y="0px"
	 width="68px" height="68px" viewBox="0 0 68 68" enable-background="new 0 0 68 68" xml:space="preserve">
<g>
	<circle fill="#676868" cx="33.999" cy="34" r="33.811"/>
	<path fill="#231F20" d="M67.811,33.999c0-3.976-0.688-7.791-1.95-11.336l-6.547-6.546l-2.26-0.218l-4.432-4.646l-1.91,4.404
		l-2.196,0.21L40.69,7.405l-2.26-0.216l-4.432-4.645l-1.91,4.402l-4.78,0.459l3.537,3.455l-0.981,4.41l2.946,2.389
		c-2.894,0.205-5.279,1.156-7.214,2.652l-0.63-0.06l-2.899-4.134l-2.261-0.218l-4.429-4.646l-1.911,4.404l-4.779,0.459l3.537,3.455
		l-0.981,4.408l9.099,8.96c-0.356,0.508-0.541,1.139-0.468,1.805l0.231,2.138c0.088,0.804,0.529,1.482,1.151,1.907l3.442,3.472
		c0.958,1.72,2.021,3.036,3.102,4.041c0.236,0.253,0.472,0.488,0.711,0.711c0.236,0.252,0.473,0.489,0.711,0.712
		c0.042,0.044,0.084,0.089,0.126,0.135v4.094h-4.6c-0.074,0-0.149,0.002-0.22,0.004c-0.075,0.002-0.147,0.003-0.217,0.009
		c-0.044,0.002-0.084,0.004-0.126,0.006c-0.005,0-0.012,0.002-0.015,0.002c-0.024,0.002-0.049,0.004-0.073,0.008h-0.011
		c-0.075,0.006-0.15,0.012-0.223,0.023c-0.016,0-0.03,0.002-0.043,0.004c-0.012,0-0.025,0.002-0.035,0.004c-0.006,0-0.01,0-0.014,0
		c-0.032,0.006-0.058,0.006-0.085,0.014c-0.014,0-0.026,0.002-0.037,0.004c-0.01,0.004-0.02,0.004-0.03,0.006
		c-0.049,0.005-0.099,0.013-0.148,0.022c-0.026,0.002-0.049,0.008-0.073,0.01c-0.006,0-0.013,0.004-0.019,0.004
		c-0.03,0.006-0.058,0.01-0.088,0.016c-0.014,0.004-0.028,0.006-0.042,0.01c-0.035,0.006-0.073,0.016-0.11,0.021
		c-0.038,0.007-0.072,0.015-0.108,0.022c-3.545,0.791-6.214,3.97-6.214,7.743v3.236c0.035,0.021,0.068,0.042,0.104,0.063
		c0.186,0.106,0.371,0.214,0.557,0.318c4.886,2.742,10.521,4.308,16.521,4.308C52.672,67.811,67.811,52.675,67.811,33.999z"/>
	<rect x="29.347" y="47.338" fill="#FFC473" width="9.305" height="11.738"/>
	<rect x="33.999" y="47.338" fill="#FFAA20" width="4.653" height="11.738"/>
	<path fill="#FFDBA9" d="M45.977,31.851c-0.5-7.36-6.778-11.537-11.978-11.537c-5.198,0-11.477,4.176-11.976,11.537
		c-1.347,0.253-2.301,1.511-2.15,2.893l0.231,2.138c0.156,1.452,1.472,2.51,2.925,2.354l0.25-0.03
		c2.97,7.734,7.764,9.727,10.721,10.176c2.959-0.449,7.75-2.439,10.723-10.176l0.249,0.03c1.452,0.155,2.77-0.902,2.925-2.354
		l0.231-2.138C48.277,33.362,47.322,32.104,45.977,31.851z"/>
	<path fill="#703700" d="M42.209,21.441c0,0,6.47,1.752,3.599,12.986h-1.393C44.415,34.427,36.762,27.895,42.209,21.441z"/>
	<path fill="#9A4C00" d="M26.094,21.441c0,0-6.472,1.752-3.6,12.986h1.394C23.888,34.427,31.541,27.895,26.094,21.441z"/>
	<rect x="25.642" y="33.918" fill="#FFC473" width="6.458" height="2.797"/>
	<polygon fill="#FFA91F" points="33.999,33.918 33.999,42.811 36.797,42.811 36.797,36.715 42.893,36.715 42.893,33.918 	"/>
	<path fill="#F4CC20" d="M51.185,59.885v3.238c-5.034,2.978-10.91,4.688-17.186,4.688c-6.273,0-12.148-1.71-17.183-4.688v-3.238
		c0-3.773,2.669-6.952,6.214-7.743c0.036-0.008,0.07-0.016,0.108-0.022c0.037-0.006,0.075-0.016,0.11-0.021
		c0.014-0.004,0.027-0.006,0.042-0.01c0.03-0.006,0.058-0.01,0.088-0.016c0.006,0,0.013-0.004,0.019-0.004
		c0.024-0.002,0.047-0.008,0.073-0.01c0.049-0.01,0.099-0.018,0.148-0.022c0.01-0.002,0.02-0.002,0.03-0.006
		c0.011-0.002,0.022-0.004,0.037-0.004c0.027-0.008,0.053-0.008,0.085-0.014c0.004,0,0.008,0,0.014,0
		c0.01-0.002,0.023-0.004,0.035-0.004c0.014-0.002,0.028-0.004,0.043-0.004c0.073-0.012,0.148-0.018,0.223-0.023h0.011
		c0.023-0.004,0.048-0.006,0.073-0.008c0.003,0,0.01-0.002,0.015-0.002c0.042-0.002,0.082-0.004,0.126-0.006
		c0.07-0.006,0.143-0.007,0.217-0.009c0.07-0.002,0.146-0.004,0.22-0.004h4.601l4.651,7.098c0,0,0.224-0.34,0.572-0.87
		c0.047-0.073,0.101-0.154,0.155-0.235c0.082-0.126,0.168-0.259,0.26-0.396c0.091-0.14,0.188-0.284,0.284-0.433
		c0.198-0.299,0.406-0.617,0.621-0.945c0.107-0.162,0.216-0.328,0.325-0.494c1.199-1.824,2.436-3.712,2.436-3.725h4.6
		c0.062,0,0.126,0.002,0.187,0.004h0.034c0.013,0,0.027,0,0.042,0.002l0,0c0.002,0,0.007,0,0.013,0.001c0.003-0.001,0.008,0,0.01,0
		c0.027,0,0.054,0,0.077,0.002c0.025,0,0.051,0.004,0.076,0.004c0.043,0.002,0.082,0.004,0.122,0.006c0,0,0,0,0.003,0
		s0.007,0,0.008,0.002h0.008c0.014,0.002,0.024,0.002,0.038,0.004c0.013,0,0.022,0.002,0.035,0.004h0.012
		c0.076,0.004,0.149,0.012,0.223,0.023c0.012,0,0.021,0,0.032,0.002c0.004,0,0.007,0,0.012,0.002c0.011,0,0.022,0.002,0.036,0.004
		c0.001,0,0.007,0,0.013,0c0.028,0.004,0.058,0.01,0.083,0.014c0.007,0,0.015,0,0.021,0.002c0.005,0,0.012,0.002,0.018,0.002
		c0.005,0.004,0.013,0.004,0.019,0.004c0.003,0,0.004,0,0.007,0.002h0.005c0.032,0.004,0.063,0.009,0.096,0.013
		c0.012,0,0.021,0.004,0.032,0.004c0.031,0.006,0.062,0.012,0.094,0.016l0.018,0.004c0.032,0.004,0.06,0.012,0.087,0.016
		c0.045,0.01,0.092,0.02,0.136,0.027c0.03,0.006,0.057,0.011,0.083,0.019c0.015,0,0.027,0.004,0.04,0.008
		C48.515,52.933,51.185,56.111,51.185,59.885z"/>
	<path fill="#F59D00" d="M51.185,59.885v3.238c-5.034,2.978-10.91,4.688-17.186,4.688v-8.76c0,0,0.224-0.34,0.572-0.87
		c0.047-0.073,0.101-0.154,0.155-0.235c0.082-0.126,0.168-0.259,0.26-0.396c0.091-0.14,0.186-0.284,0.284-0.433
		c0.198-0.299,0.406-0.617,0.621-0.945c0.107-0.162,0.216-0.328,0.325-0.494c1.198-1.824,2.435-3.712,2.435-3.725h4.601
		c0.062,0,0.126,0.002,0.187,0.004h0.034c0.015,0,0.027,0,0.042,0.002l0,0c0.002,0,0.007,0,0.013,0.001c0.003,0,0.008,0,0.01,0
		c0.027,0,0.054,0.002,0.077,0.002c0.025,0,0.051,0.004,0.076,0.004c0.043,0.002,0.083,0.004,0.122,0.006c0,0,0,0,0.003,0
		s0.007,0,0.008,0.002c0.004,0.002,0.006,0.002,0.009,0.002c0.013,0,0.023,0,0.037,0.002c0.013,0,0.022,0.002,0.035,0.004h0.012
		c0.076,0.004,0.149,0.012,0.223,0.023c0.012,0,0.021,0,0.032,0.002c0.004,0,0.007,0.002,0.012,0.004c0.01,0,0.022,0,0.036,0.002
		c0.001,0,0.007,0,0.013,0c0.028,0.004,0.058,0.01,0.083,0.014c0.007,0,0.015,0,0.021,0.002c0.006,0,0.012,0.002,0.018,0.002
		c0.005,0,0.013,0,0.019,0.004c0.003,0,0.004,0.002,0.006,0.002h0.006c0.032,0.004,0.064,0.009,0.096,0.013
		c0.012,0,0.021,0.004,0.032,0.004c0.031,0.006,0.062,0.012,0.094,0.018l0.018,0.002c0.032,0.004,0.06,0.012,0.087,0.016
		c0.045,0.01,0.092,0.02,0.136,0.027c0.03,0.006,0.057,0.011,0.083,0.019c0.015,0,0.027,0.004,0.04,0.008
		C48.515,52.933,51.185,56.111,51.185,59.885z"/>
	<polygon fill="#FFFFFF" points="29.348,51.953 25.675,54.369 31.129,62.899 33.999,59.051 	"/>
	<polygon fill="#E1E1E3" points="38.652,51.953 42.323,54.369 36.87,62.899 33.999,59.051 	"/>
	<path fill="#C06200" d="M22.383,31.94c0,0,7.887,1.503,15.778-3.663c7.893-5.166,3.792-10.659-4.162-10.659
		c-8.473,0-12.914,6.065-14.595,13.692C19.404,31.311,20.371,31.596,22.383,31.94z"/>
	<polygon fill="#FFA91F" points="15.377,11.253 17.289,15.657 22.067,16.117 18.47,19.293 19.512,23.979 15.377,21.542 
		11.243,23.979 12.285,19.293 8.688,16.117 13.467,15.657 	"/>
	<polygon fill="#FF8900" points="52.622,11.253 54.533,15.657 59.313,16.117 55.715,19.293 56.757,23.979 52.622,21.542 
		48.487,23.979 49.529,19.293 45.933,16.117 50.712,15.657 	"/>
	<polygon fill="#FFA91F" points="33.999,2.544 35.911,6.946 40.69,7.405 37.092,10.584 38.135,15.27 33.999,12.83 29.864,15.27 
		30.908,10.584 27.309,7.405 32.089,6.946 	"/>
	<polygon fill="#FF8900" points="37.092,10.582 38.135,15.27 33.999,12.83 33.999,2.542 35.911,6.946 40.69,7.405 	"/>
</g>
</svg>
