<?xml version="1.0" encoding="utf-8"?>
<!-- Generator: Adobe Illustrator 16.0.0, SVG Export Plug-In . SVG Version: 6.00 Build 0)  -->
<!DOCTYPE svg PUBLIC "-//W3C//DTD SVG 1.1//EN" "http://www.w3.org/Graphics/SVG/1.1/DTD/svg11.dtd">
<svg version="1.1" id="Layer_1" xmlns="http://www.w3.org/2000/svg" xmlns:xlink="http://www.w3.org/1999/xlink" x="0px" y="0px"
	 width="60px" height="60px" viewBox="0 0 60 60" enable-background="new 0 0 60 60" xml:space="preserve">
<g>
	<path fill="#FAAD1D" d="M58.884,11.615c0.483,0,0.873-0.391,0.873-0.872V3.041c0-0.481-0.39-0.872-0.873-0.872l-20.31,0V1.115
		c0-0.481-0.39-0.872-0.871-0.872H22.297c-0.48,0-0.872,0.391-0.872,0.872v1.054H10.958c-0.482,0-0.872,0.39-0.872,0.872
		c0,0.481,0.39,0.873,0.872,0.873h10.467v1.053c0,0.481,0.391,0.872,0.872,0.872h15.406c0.481,0,0.871-0.391,0.871-0.872V3.914
		h19.438v5.958H1.987V3.914h5.5c0.48,0,0.872-0.392,0.872-0.873c0-0.481-0.391-0.872-0.872-0.872H1.115
		c-0.482,0-0.872,0.39-0.872,0.872v7.702c0,0.481,0.39,0.872,0.872,0.872h1.054v11.643c0,0.001,0,0.001,0,0.001
		c0,0.002,0,0.003,0,0.004v11.643H1.115c-0.482,0-0.872,0.39-0.872,0.871v23.107c0,0.482,0.39,0.873,0.872,0.873h11.552
		c0,0,0.001,0,0.002,0h9.627h15.406h9.627c0,0,0.002,0,0.003,0h11.551c0.483,0,0.873-0.391,0.873-0.873V35.776
		c0-0.481-0.39-0.872-0.873-0.872h-1.053V11.615H58.884z M36.831,4.095H23.17V1.987h13.661V4.095z M55.398,24.132l-2.291,3.724
		l-2.291-3.724H55.398z M50.816,22.389l2.291-3.724l2.291,3.724H50.816z M55.398,34.904h-4.582l2.291-3.724L55.398,34.904z
		 M54.131,29.519l1.957-3.178v6.357L54.131,29.519z M54.131,17.001l1.957-3.178v6.357L54.131,17.001z M55.399,11.615l-2.292,3.724
		l-2.291-3.724H55.399z M50.128,13.824l1.956,3.178l-1.956,3.179V13.824z M50.128,26.34l1.956,3.178l-1.956,3.178V26.34z
		 M9.184,24.132l-2.292,3.724l-2.291-3.724H9.184z M4.602,22.389l2.291-3.724l2.292,3.724H4.602z M9.184,34.905H4.602l2.291-3.725
		L9.184,34.905z M7.917,29.519l1.956-3.178v6.357L7.917,29.519z M7.917,17.001l1.956-3.178v6.357L7.917,17.001z M9.184,11.615
		l-2.292,3.724l-2.291-3.724H9.184z M3.914,13.824l1.955,3.178L3.914,20.18V13.824z M3.914,26.34l1.955,3.178l-1.955,3.178V26.34z
		 M11.797,47.328c0,0.001,0,0.002,0,0.002c0,0.002,0,0.003,0,0.003v3.847c0,0,0,0.001,0,0.002v0.002v6.829h-9.81V36.649h9.81V47.328
		z M36.831,58.013H23.169v-2.107h13.662V58.013z M46.459,58.013h-7.885v-2.979c0-0.481-0.39-0.871-0.871-0.871H22.297
		c-0.48,0-0.872,0.39-0.872,0.871v2.979h-7.885v-5.96h32.918V58.013z M46.459,50.31H13.541v-2.106h32.918V50.31z M29.216,46.459
		L30,45.676l0.784,0.783H29.216z M47.33,34.904c-0.481,0-0.871,0.391-0.871,0.872v10.683h-13.21l-2.378-2.377v-9.87l1.671-1.67
		c0.341-0.34,0.341-0.892,0.001-1.233c-0.341-0.34-0.893-0.34-1.234,0l-1.924,1.925c-0.001,0.001-0.002,0.002-0.002,0.002
		l-0.963,0.962c-0.339,0.342-0.339,0.893,0,1.233c0.171,0.17,0.395,0.255,0.617,0.255c0.03,0,0.062-0.002,0.092-0.004v8.4
		l-2.377,2.377H13.541V35.776c0-0.481-0.39-0.871-0.871-0.871h-1.053v-23.29h4.829v2.108h-1.852c-0.229,0-0.451,0.091-0.615,0.255
		c-0.164,0.163-0.255,0.385-0.255,0.616v2.724c0,0.23,0.091,0.453,0.255,0.616l3.469,3.469l-0.065,0.064
		c-0.339,0.34-0.339,0.893,0,1.233c0.17,0.17,0.394,0.255,0.617,0.255c0.222,0,0.445-0.085,0.615-0.255l0.681-0.681l0,0l2.724-2.724
		c0.001,0,0.001,0,0.001,0l0.681-0.68c0.34-0.341,0.34-0.893,0-1.232c-0.341-0.341-0.893-0.341-1.233,0l-0.065,0.064l-3.213-3.213
		v-2.618H41.81v2.618l-3.213,3.213l-0.065-0.064c-0.341-0.341-0.891-0.341-1.232,0c-0.34,0.339-0.34,0.892,0,1.232l4.087,4.085
		c0.169,0.17,0.393,0.255,0.616,0.255c0.223,0,0.445-0.085,0.616-0.255c0.34-0.34,0.34-0.893,0-1.233l-0.065-0.064l3.469-3.469
		c0.164-0.164,0.255-0.386,0.255-0.616l0.001-2.724c0-0.231-0.092-0.453-0.256-0.616c-0.164-0.164-0.385-0.255-0.617-0.255h-1.851
		v-2.108h4.831v11.643c0,0.001,0,0.001,0,0.001c0,0.002,0,0.003,0,0.004v11.642H47.33z M16.957,15.466l3.214,3.213L18.68,20.17
		l-3.213-3.213v-1.491H16.957z M43.043,15.466h1.491l-0.001,1.491L41.32,20.17l-1.491-1.491L43.043,15.466z M58.013,36.649v21.363
		h-9.812V36.649h1.051h0.003c0.002,0,0.004,0,0.005,0h7.695c0.002,0,0.003,0,0.004,0s0.002,0,0.003,0H58.013z"/>
	<path fill="#FAAD1D" d="M53.107,37.793c-2.34,0-4.241,1.904-4.241,4.241c0,2.34,1.901,4.242,4.241,4.242s4.241-1.902,4.241-4.242
		C57.349,39.697,55.447,37.793,53.107,37.793z M53.107,44.533c-1.376,0-2.498-1.12-2.498-2.499c0-1.376,1.122-2.498,2.498-2.498
		c1.379,0,2.499,1.122,2.499,2.498C55.606,43.413,54.486,44.533,53.107,44.533z"/>
	<circle fill="#FAAD1D" cx="53.107" cy="42.035" r="0.902"/>
	<path fill="#FAAD1D" d="M53.107,48.384c-2.34,0-4.241,1.903-4.241,4.242c0,2.338,1.901,4.241,4.241,4.241s4.241-1.903,4.241-4.241
		C57.349,50.287,55.447,48.384,53.107,48.384z M53.107,55.125c-1.376,0-2.498-1.122-2.498-2.499c0-1.378,1.122-2.498,2.498-2.498
		c1.379,0,2.499,1.12,2.499,2.498C55.606,54.003,54.486,55.125,53.107,55.125z"/>
	<circle fill="#FAAD1D" cx="53.107" cy="52.627" r="0.902"/>
	<path fill="#FAAD1D" d="M6.893,46.276c2.338,0,4.241-1.902,4.241-4.242c0-2.337-1.903-4.241-4.241-4.241
		c-2.339,0-4.242,1.904-4.242,4.241C2.651,44.374,4.553,46.276,6.893,46.276z M6.893,39.536c1.376,0,2.497,1.122,2.497,2.498
		c0,1.379-1.12,2.499-2.497,2.499c-1.378,0-2.499-1.12-2.499-2.499C4.394,40.658,5.514,39.536,6.893,39.536z"/>
	<circle fill="#FAAD1D" cx="6.893" cy="42.035" r="0.902"/>
	<path fill="#FAAD1D" d="M6.893,56.867c2.338,0,4.241-1.903,4.241-4.241c0-2.339-1.903-4.242-4.241-4.242
		c-2.339,0-4.242,1.903-4.242,4.242C2.651,54.964,4.553,56.867,6.893,56.867z M6.893,50.128c1.376,0,2.497,1.12,2.497,2.498
		c0,1.377-1.12,2.499-2.497,2.499c-1.378,0-2.499-1.122-2.499-2.499C4.394,51.248,5.514,50.128,6.893,50.128z"/>
	<circle fill="#FAAD1D" cx="6.893" cy="52.627" r="0.902"/>
</g>
</svg>
