<?xml version="1.0" encoding="utf-8"?>
<!-- Generator: Adobe Illustrator 16.0.0, SVG Export Plug-In . SVG Version: 6.00 Build 0)  -->
<!DOCTYPE svg PUBLIC "-//W3C//DTD SVG 1.1//EN" "http://www.w3.org/Graphics/SVG/1.1/DTD/svg11.dtd">
<svg version="1.1" id="Layer_1" xmlns="http://www.w3.org/2000/svg" xmlns:xlink="http://www.w3.org/1999/xlink" x="0px" y="0px"
	 width="60px" height="60px" viewBox="0 0 60 60" enable-background="new 0 0 60 60" xml:space="preserve">
<g>
	<path fill="#FAAD1D" d="M51.51,4.972H19.405c-0.57-3.266-3.682-5.449-6.948-4.878c-2.859,0.5-4.951,2.976-4.967,5.878v49.022h0.09
		c0.491,2.886,2.986,4.998,5.913,5.003h28.014c0.552,0,1-0.447,1-1.001v-3.001h9.004c0.553,0,1.001-0.448,1.001-1.001V5.972
		C52.511,5.419,52.062,4.972,51.51,4.972z M9.492,5.972c0-2.209,1.791-4.001,4-4.001c2.21,0,4.001,1.792,4.001,4.001v43.561
		c-2.271-2.054-5.731-2.054-8.002,0V5.972z M40.505,57.996H13.492c-2.209,0-4-1.791-4-4.002c0-2.21,1.791-4.002,4-4.002
		c2.21,0,4.001,1.792,4.001,4.002v1c0,0.553,0.449,1.001,1.001,1.001h22.01V57.996z M50.509,53.994H19.495V6.973h31.014V53.994z"/>
	<path fill="#FAAD1D" d="M22.496,20.979h25.013c0.551,0,0.999-0.447,0.999-1V9.974c0-0.553-0.448-1-0.999-1H22.496
		c-0.553,0-1,0.448-1,1v10.005C21.497,20.531,21.943,20.979,22.496,20.979z M23.497,10.974h23.011v8.003H23.497V10.974z"/>
	<path fill="#FAAD1D" d="M22.496,35.985h12.006c0.553,0,1.001-0.447,1.001-1.001V23.98c0-0.553-0.448-1-1.001-1H22.496
		c-0.553,0-1,0.447-1,1v11.004C21.497,35.538,21.943,35.985,22.496,35.985z M23.497,24.98h10.004v9.005H23.497V24.98z"/>
	<path fill="#FAAD1D" d="M47.509,37.986H35.503c-0.554,0-1.001,0.448-1.001,1.001v12.006c0,0.552,0.447,1.001,1.001,1.001h12.006
		c0.551,0,0.999-0.449,0.999-1.001V38.987C48.508,38.435,48.06,37.986,47.509,37.986z M46.508,49.992H36.503V39.988h10.005V49.992z"
		/>
	<rect x="37.503" y="23.98" fill="#FAAD1D" width="11.005" height="2"/>
	<rect x="37.503" y="27.982" fill="#FAAD1D" width="11.005" height="2.001"/>
	<rect x="37.503" y="31.983" fill="#FAAD1D" width="11.005" height="2.002"/>
	<rect x="21.497" y="37.986" fill="#FAAD1D" width="11.004" height="2.002"/>
	<rect x="21.497" y="41.988" fill="#FAAD1D" width="11.004" height="2.001"/>
	<rect x="21.497" y="45.991" fill="#FAAD1D" width="11.004" height="2"/>
	<rect x="21.497" y="49.992" fill="#FAAD1D" width="11.004" height="2.002"/>
</g>
</svg>
