<?xml version="1.0" encoding="utf-8"?>
<!-- Generator: Adobe Illustrator 16.0.0, SVG Export Plug-In . SVG Version: 6.00 Build 0)  -->
<!DOCTYPE svg PUBLIC "-//W3C//DTD SVG 1.1//EN" "http://www.w3.org/Graphics/SVG/1.1/DTD/svg11.dtd">
<svg version="1.1" id="Layer_1" xmlns="http://www.w3.org/2000/svg" xmlns:xlink="http://www.w3.org/1999/xlink" x="0px" y="0px"
	 width="68px" height="68px" viewBox="0 0 68 68" enable-background="new 0 0 68 68" xml:space="preserve">
<g>
	<circle fill="#676868" cx="34" cy="34" r="33.919"/>
	<path fill="#656D7A" d="M57.02,18.983H10.983c-1.983,0-3.592,1.609-3.592,3.592v34.787h53.219V22.575
		C60.609,20.593,59.004,18.983,57.02,18.983z"/>
	<rect x="10.548" y="22.138" fill="#4786C6" width="46.903" height="32.07"/>
	<polygon fill="#D2D2D4" points="66.709,60.476 1.292,60.476 7.391,57.36 60.609,57.36 	"/>
	<g>
		<rect id="SVGCleanerId_0_5_" x="1.292" y="60.474" fill="#656D7A" width="65.417" height="2.77"/>
	</g>
	<g>
		<rect id="SVGCleanerId_0_4_" x="1.292" y="60.474" fill="#656D7A" width="65.417" height="2.77"/>
	</g>
	<g>
		<rect id="SVGCleanerId_0_3_" x="1.292" y="60.474" fill="#656D7A" width="65.417" height="2.77"/>
	</g>
	<rect x="29.375" y="60.474" fill="#4D535F" width="9.25" height="2.77"/>
	<g>
		<path fill="#D2D2D4" d="M57.451,37.343v16.865H10.548V35.065c0,0,3.801-1.225,5.433,3.16c0,0,6.111-4.475,7.482,2.58
			c0,0,3.529-0.688,4.214,3.699c0,0,1.723-0.344,2.066,1.547h10.749c0,0,1.463-4.732,5.508-1.203c0,0-0.43-4.646,3.609-2.664
			c0,0,0.26-6.541,5.762-3.012C55.371,39.173,55.9,37.589,57.451,37.343z"/>
		<path fill="#D2D2D4" d="M39.148,37.188h-9.082C26.77,47.407,17.164,48.403,17.164,48.403h34.889
			C52.053,48.403,42.443,47.407,39.148,37.188z"/>
	</g>
	<g>
		<path fill="#E8E7E8" d="M57.451,54.208H10.548V38.569c0,0,3.801-1.23,5.433,3.16c0,0,6.111-4.475,7.482,2.58
			c0,0,3.529-0.689,4.214,3.693c0,0,1.723-0.344,2.066,1.547h10.749c0,0,1.463-4.727,5.508-1.203c0,0-0.43-4.643,3.609-2.664
			c0,0,0.26-6.535,5.762-3.012c0,0,0.529-1.578,2.08-1.824V54.208z"/>
		<path fill="#E8E7E8" d="M39.148,39.974h-9.082C26.77,50.192,17.164,51.188,17.164,51.188h34.889
			C52.053,51.188,42.443,50.192,39.148,39.974z"/>
	</g>
	<polygon fill="#656D7A" points="41.436,41.772 27.777,41.772 28.727,39.839 40.482,39.839 	"/>
	<g>
		<path fill="#FAAD1D" d="M48.318,40.544c0,0-3.861-10.439-5.576-12.15l-6.576,6.574C37.879,36.683,48.318,40.544,48.318,40.544z"/>
		<path fill="#FAAD1D" d="M20.896,40.544c0,0,3.864-10.439,5.576-12.15l6.577,6.574C31.334,36.683,20.896,40.544,20.896,40.544z"/>
	</g>
	<path fill="#FDFEFF" d="M40.494,39.974h-11.77c-3.235-7.893-3.367-16.951-0.361-24.951c1.395-3.729,3.479-7.232,6.243-10.266
		c2.764,3.033,4.846,6.537,6.245,10.266C43.852,23.009,43.729,32.069,40.494,39.974z"/>
	<path fill="#FAAD1D" d="M40.852,15.022c-1.754,1.4-3.91,2.225-6.248,2.225c-2.33,0-4.485-0.824-6.24-2.225
		c1.395-3.73,3.479-7.232,6.24-10.266C37.369,7.79,39.453,11.292,40.852,15.022z"/>
	<circle fill="#656D7A" cx="34.61" cy="25.273" r="4.907"/>
	<circle fill="#E8E7E8" cx="34.61" cy="25.273" r="3.122"/>
	<ellipse fill="#F1592F" cx="34.61" cy="38.41" rx="0.498" ry="5.909"/>
</g>
</svg>
