<?xml version="1.0" encoding="utf-8"?>
<!-- Generator: Adobe Illustrator 16.0.0, SVG Export Plug-In . SVG Version: 6.00 Build 0)  -->
<!DOCTYPE svg PUBLIC "-//W3C//DTD SVG 1.1//EN" "http://www.w3.org/Graphics/SVG/1.1/DTD/svg11.dtd">
<svg version="1.1" id="Layer_1" xmlns="http://www.w3.org/2000/svg" xmlns:xlink="http://www.w3.org/1999/xlink" x="0px" y="0px"
	 width="68px" height="68px" viewBox="0 0 68 68" enable-background="new 0 0 68 68" xml:space="preserve">
<g>
	<circle fill="#676868" cx="34" cy="34" r="33.991"/>
	<path fill="#F1543F" d="M59.053,25.542c0,0.428-0.108,0.803-0.376,1.178c-1.178-0.644-2.569-0.964-4.015-0.964
		c-1.499,0-2.892,0.267-4.015,0.964c-0.215-0.375-0.376-0.75-0.376-1.178c0-1.605,1.983-2.944,4.391-2.944
		C57.071,22.598,59.053,23.937,59.053,25.542z"/>
	<path fill="#FF7058" d="M62.21,34.052c0,1.661-0.268,3.375-0.697,5.033H47.812c-0.108-0.482-0.216-0.908-0.321-1.392
		c1.282-2.303,2.676-6.103,1.979-10.17c1.339-1.233,3.158-1.767,5.14-1.767C58.838,25.756,62.21,28.057,62.21,34.052z"/>
	<path fill="#F9B54C" d="M59.532,43.904c0,0,0.376,2.14-2.087,4.335l-7.709-3.748c0.056-0.587,0.215-1.125,0.43-1.605
		c1.178,2.142,2.782,3.587,4.549,3.587s3.374-1.498,4.551-3.587C59.373,43.208,59.479,43.527,59.532,43.904L59.532,43.904z"/>
	<path fill="#4CDBC4" d="M64.993,47.972c-1.177,2.676-2.73,5.138-4.55,7.388l-0.428-1.395c0.267-0.803,1.283-5.296,0.642-8.135
		L64.993,47.972z"/>
	<g>
		<path fill="#FFFFFF" d="M60.016,53.965l-1.714-5.351l-0.856-0.431c2.463-2.194,2.087-4.334,2.087-4.334
			C61.942,45.723,60.337,52.896,60.016,53.965z"/>
		<path fill="#FFFFFF" d="M49.792,43.904c-0.056,0.159-0.056,0.373-0.108,0.587l-0.32-0.161
			C49.47,44.172,49.631,44.011,49.792,43.904z"/>
	</g>
	<path fill="#FFD05B" d="M61.942,39.728c-0.482,0.964-1.285,1.392-1.82,1.069c-1.23,3.159-3.211,5.62-5.513,5.62
		s-4.282-2.461-5.515-5.62c-0.535,0.322-1.337-0.161-1.819-1.069c-0.214-0.429-0.32-0.856-0.375-1.231
		c0.267-0.375,0.535-0.855,0.803-1.392c0.108,0,0.214,0,0.375,0.055l0,0l0.053,0.054l0,0c0-0.054-0.214-2.034,5.032-4.178
		c1.872-0.748,3.052-1.604,3.748-2.409c0.267,1.178,0.909,2.838,2.621,3.48c0,0,1.608,0.375,1.446,3.052l0,0
		c0.268-0.107,0.534-0.107,0.75,0.054C62.424,37.641,62.477,38.764,61.942,39.728z"/>
	<path fill="#E6E9EE" d="M45.884,52.896L45.884,52.896c-0.107,0.75-0.27,1.553-0.374,2.41l-1.875-5.675
		C44.546,50.381,45.401,51.397,45.884,52.896z"/>
	<path fill="#F9B54C" d="M45.348,40.691c0,0,0.644,3.531-4.497,6.584l-5.834-2.837c-1.552-2.033-1.231-3.747-1.231-3.747
		s0,0-0.053,0c0-0.056,0-0.108,0.053-0.214c1.607,1.979,3.586,3.264,5.781,3.264c2.194,0,4.176-1.285,5.781-3.264
		C45.348,40.583,45.401,40.636,45.348,40.691C45.401,40.691,45.401,40.691,45.348,40.691z"/>
	<path fill="#2B3B4E" d="M60.443,55.359c-3.212,3.959-7.28,7.171-11.938,9.365l-3.051-9.419c0.159-0.803,0.269-1.607,0.375-2.41
		c0.054,0.107,1.713-6.104,0.802-9.849l11.563,5.567L60.443,55.359z"/>
	<g>
		<path fill="#FFFFFF" d="M45.884,52.896c-0.482-1.498-1.338-2.569-2.249-3.265l-0.374-1.178l-2.355-1.125
			c5.139-3.051,4.496-6.584,4.496-6.584C48.56,43.1,45.937,53.057,45.884,52.896z"/>
		<path fill="#FFFFFF" d="M35.017,44.438l-2.568-1.23c0.214-1.072,0.641-1.981,1.337-2.517
			C33.785,40.691,33.465,42.405,35.017,44.438z"/>
	</g>
	<path fill="#FFD05B" d="M46.955,36.035c-0.752,2.354-1.071,3.639-1.071,3.8l0,0c-1.714,2.301-3.908,3.906-6.264,3.906
		c-2.249,0-4.335-1.392-5.994-3.479c0,0,0.053,0,0.053,0.054c-1.607-1.981-1.981-4.765-1.928-7.173l0,0
		c0.589-1.392,1.017-3.052,1.285-4.817c2.141,1.606,7.066,1.712,7.066,1.712c-2.517-0.426-2.89-2.409-2.89-2.409
		c0.427,1.231,5.995,1.983,5.995,1.983C48.881,30.415,46.955,36.035,46.955,36.035z"/>
	<g>
		<path fill="#2B3B4E" d="M33.626,40.316c0,0-1.875-1.5-3.426-4.121c0.482-0.805,1.017-1.875,1.499-3.052
			C31.644,35.552,32.019,38.335,33.626,40.316z"/>
		<path fill="#2B3B4E" d="M45.884,39.888c0,0,0.267-1.338,1.071-3.8c0,0,1.926-5.621-3.855-6.476c0,0-5.567-0.752-5.995-1.983
			c0,0,0.428,2.034,2.891,2.409c0,0-4.925-0.106-7.066-1.712c0.321-2.675,0.107-5.62-1.286-8.564
			c1.125-0.589,2.57-0.803,4.551-0.269c0,0,7.816-3.104,11.831,3.961C52.308,31.001,46.955,39.193,45.884,39.888z"/>
	</g>
	<path fill="#324A5E" d="M44.76,32.018H42.03h-0.27h-4.334h-0.161h-2.892c-0.856,0-1.553,0.697-1.553,1.553v1.283
		c0,0.858,0.697,1.555,1.553,1.555h2.997c0.375,0,0.75-0.16,1.018-0.374c0.107-0.056,0.161-0.108,0.215-0.217
		c0.214-0.48,0.59-0.747,0.963-0.747c0.376,0,0.75,0.267,0.964,0.747c0.054,0.108,0.106,0.161,0.215,0.217
		c0.268,0.267,0.641,0.374,1.016,0.374h2.999c0.854,0,1.552-0.696,1.552-1.555v-1.283C46.312,32.715,45.614,32.018,44.76,32.018z
		 M34.374,35.66c-0.427,0-0.803-0.375-0.803-0.806v-1.283c0-0.428,0.375-0.803,0.803-0.803h2.892h0.161
		c0.427,0,0.803,0.375,0.803,0.803v1.283c0,0.108,0,0.217-0.054,0.324c-0.055,0.053-0.055,0.106-0.107,0.159
		c-0.162,0.214-0.375,0.322-0.642,0.322H34.374z M39.566,34.268c-0.214,0-0.428,0.053-0.641,0.161v-0.911
		c0-0.322-0.108-0.589-0.216-0.803h1.768c-0.161,0.214-0.215,0.536-0.215,0.803v0.911C39.995,34.321,39.781,34.268,39.566,34.268z
		 M45.562,34.854c0,0.431-0.374,0.806-0.803,0.806h-2.999c-0.267,0-0.48-0.108-0.642-0.322c-0.053-0.053-0.053-0.106-0.106-0.159
		c-0.054-0.107-0.054-0.216-0.054-0.324v-1.283c0-0.428,0.374-0.803,0.802-0.803h0.27h2.729c0.429,0,0.803,0.375,0.803,0.803V34.854
		L45.562,34.854z"/>
	<g>
		<path fill="#E6E9EE" d="M10.394,58.409c0.053,0.106,0.161,0.161,0.214,0.214C10.554,58.57,10.446,58.516,10.394,58.409
			L10.394,58.409z"/>
		<path fill="#E6E9EE" d="M21.42,47.597c-0.053,0-0.107,0.054-0.161,0.054c-0.053,0-0.106-0.054-0.159-0.054H21.42z"/>
		<path fill="#E6E9EE" d="M28.648,53.484c-0.59,3.908-1.554,8.459-3.16,13.437c-3.479-0.91-6.798-2.355-9.743-4.229
			c-0.909-3.318-1.499-6.424-1.873-9.207c1.712-5.354,7.386-5.834,7.386-5.834S26.987,48.131,28.648,53.484z"/>
	</g>
	<path fill="#F9B54C" d="M28.058,39.085c0,0,0.857,4.819-6.799,8.565h-0.053c-7.654-3.746-6.798-8.565-6.798-8.565s0,0-0.053,0
		c0-0.053,0.053-0.161,0.053-0.214c1.873,2.303,4.229,3.801,6.798,3.801c2.569,0,4.87-1.498,6.798-3.801
		C28.058,38.979,28.112,39.032,28.058,39.085C28.112,39.139,28.112,39.085,28.058,39.085z"/>
	<g>
		<path fill="#54C0EB" d="M21.313,47.65C21.313,47.65,21.259,47.65,21.313,47.65c-0.054,0-0.054,0-0.054,0H21.313z"/>
		<path fill="#54C0EB" d="M23.989,48.4l-0.911,2.62h-3.585l-0.911-2.62c1.499-0.645,2.677-0.75,2.677-0.75
			S22.491,47.756,23.989,48.4z"/>
	</g>
	<path fill="#84DBFF" d="M25.327,66.868l-2.249-15.848h-3.585l-1.82,12.795C20.028,65.102,22.599,66.172,25.327,66.868z"/>
	<path fill="#324A5E" d="M15.746,62.691c-5.888-3.748-10.544-9.26-13.221-15.789l10.385-4.98c-1.071,4.495,0.91,11.776,0.964,11.617
		C14.247,56.268,14.89,59.318,15.746,62.691z"/>
	<g>
		<path fill="#FFFFFF" d="M28.058,39.085c0,0,0.857,4.819-6.799,8.565c0,0,5.728,0.428,7.389,5.834
			C28.754,53.646,31.859,41.977,28.058,39.085z"/>
		<path fill="#FFFFFF" d="M14.463,39.085c-3.75,2.837-0.644,14.561-0.59,14.347c1.712-5.354,7.386-5.835,7.386-5.835
			C13.605,43.956,14.463,39.085,14.463,39.085z"/>
	</g>
	<path fill="#FFD05B" d="M29.932,33.624c-0.964,2.944-1.284,4.497-1.284,4.497c-1.981,2.73-4.553,4.551-7.389,4.551
		c-2.677,0-5.084-1.659-7.064-4.122l0.052,0.053c-4.174-5.138-1.284-14.613-1.284-14.613c2.088,2.356,8.832,2.517,8.832,2.517
		c-2.945-0.483-3.426-2.836-3.426-2.836c0.481,1.445,7.013,2.301,7.013,2.301C32.18,27.04,29.932,33.624,29.932,33.624z"/>
	<g>
		<path fill="#324A5E" d="M17.353,14.141c0,0,9.207-3.692,13.864,4.657c5.033,8.887-1.285,18.574-2.568,19.324
			c0,0,0.32-1.553,1.284-4.497c0,0,2.249-6.584-4.497-7.601c0,0-6.585-0.855-7.013-2.3c0,0,0.482,2.354,3.425,2.836
			c0,0-6.744-0.161-8.831-2.517c0,0-2.892,9.476,1.338,14.613c0,0-7.228-5.779-6.37-14.719C7.931,23.937,7.557,11.677,17.353,14.141
			z"/>
		<path fill="#324A5E" d="M48.506,64.725c-4.39,2.089-9.312,3.267-14.506,3.267c-2.944,0-5.781-0.375-8.458-1.07
			c1.606-4.978,2.57-9.528,3.159-13.437l0,0c0.106,0,1.981-7.173,0.964-11.615l13.596,6.584L48.506,64.725z"/>
	</g>
</g>
</svg>
