<?xml version="1.0" encoding="utf-8"?>
<!-- Generator: Adobe Illustrator 16.0.0, SVG Export Plug-In . SVG Version: 6.00 Build 0)  -->
<!DOCTYPE svg PUBLIC "-//W3C//DTD SVG 1.1//EN" "http://www.w3.org/Graphics/SVG/1.1/DTD/svg11.dtd">
<svg version="1.1" id="Layer_1" xmlns="http://www.w3.org/2000/svg" xmlns:xlink="http://www.w3.org/1999/xlink" x="0px" y="0px"
	 width="60px" height="60px" viewBox="0 0 60 60" enable-background="new 0 0 60 60" xml:space="preserve">
<g>
	<path fill="#FAAD1D" d="M44.707,30.584H7.768l2.167-2.173c0.152-0.087,0.278-0.213,0.366-0.366l2.641-2.649
		c0.164-0.089,0.298-0.226,0.388-0.39l2.623-2.621c0.175-0.094,0.32-0.238,0.411-0.415l2.593-2.602
		c0.188-0.095,0.343-0.248,0.438-0.438l2.567-2.578c0.203-0.096,0.364-0.259,0.461-0.461l2.546-2.555
		c0.214-0.098,0.388-0.27,0.485-0.484l2.521-2.531c0.225-0.1,0.406-0.282,0.503-0.509l3.763-3.774c0.392-0.394,0.392-1.03,0-1.424
		l-3.562-3.576c-0.849-0.811-2.083-1.072-3.187-0.675c-0.062-0.003-0.123,0-0.184,0.009c-0.208,0.056-0.391,0.179-0.522,0.35
		c-0.139,0.094-0.27,0.2-0.389,0.316L3.792,21.706c-0.033,0.029-0.065,0.062-0.094,0.095l-2.643,2.652
		c-1.177,1.18-1.177,3.09,0,4.27l3.327,3.336v24.737c0,1.671,1.354,3.024,3.024,3.024h35.283c1.672,0,3.026-1.354,3.026-3.024
		V31.593C45.715,31.035,45.263,30.584,44.707,30.584z M27.25,2.458l2.854,2.864l-2.016,2.016l-1.281-5.123
		C26.974,2.257,27.126,2.339,27.25,2.458z M2.483,27.298c-0.392-0.393-0.392-1.029,0-1.422l1.358-1.363l1.385,5.537L2.483,27.298z
		 M39.322,32.601h1.84l-2.161,5.041h-1.837L39.322,32.601z M35.29,32.601h1.84l-2.161,5.041h-1.838L35.29,32.601z M31.258,32.601
		h1.84l-2.16,5.041h-1.839L31.258,32.601z M27.226,32.601h1.84l-2.161,5.041h-1.839L27.226,32.601z M23.194,32.601h1.84
		l-2.161,5.041h-1.84L23.194,32.601z M19.162,32.601h1.837l-2.159,5.041H17L19.162,32.601z M15.128,32.601h1.838l-2.16,5.041h-1.838
		L15.128,32.601z M11.095,32.601h1.84l-2.161,5.041H8.935L11.095,32.601z M8.903,32.601l-2.161,5.041H6.397v-5.041H8.903z
		 M24.999,3.289l1.429,5.722l-1.36,1.365l-1.43-5.722L24.999,3.289z M21.986,6.319l1.43,5.722l-1.361,1.365l-1.443-5.722
		L21.986,6.319z M18.961,9.352l1.432,5.721l-1.361,1.364l-1.43-5.72L18.961,9.352z M15.937,12.384l1.431,5.721l-1.361,1.365
		l-1.436-5.722L15.937,12.384z M12.912,15.417l1.432,5.721l-1.361,1.365l-1.431-5.722L12.912,15.417z M9.888,18.448l1.43,5.721
		l-1.36,1.365l-1.434-5.721L9.888,18.448z M6.864,21.48l1.432,5.721l-1.361,1.367l-1.432-5.723L6.864,21.48z M43.699,56.796
		c0,0.556-0.452,1.009-1.011,1.009H7.406c-0.557,0-1.008-0.453-1.008-1.009V39.657h37.302V56.796z M43.699,37.642h-2.503
		l2.159-5.041h0.344V37.642z"/>
	<path fill="#FAAD1D" d="M9.872,54.61c0.28,0.187,0.635,0.222,0.945,0.092l12.099-5.042c0.375-0.155,0.621-0.522,0.621-0.93
		s-0.246-0.774-0.621-0.931l-12.099-5.041c-0.31-0.129-0.666-0.095-0.945,0.093c-0.281,0.186-0.45,0.501-0.45,0.838v10.08
		C9.422,54.108,9.591,54.424,9.872,54.61z M11.439,45.201l8.468,3.529l-8.468,3.529V45.201z"/>
	<path fill="#FAAD1D" d="M26.561,43.689h14.113c0.557,0,1.008-0.451,1.008-1.007c0-0.558-0.451-1.01-1.008-1.01H26.561
		c-0.558,0-1.008,0.452-1.008,1.01C25.553,43.238,26.003,43.689,26.561,43.689z"/>
	<path fill="#FAAD1D" d="M26.561,47.722h14.113c0.557,0,1.008-0.45,1.008-1.007c0-0.558-0.451-1.01-1.008-1.01H26.561
		c-0.558,0-1.008,0.452-1.008,1.01C25.553,47.271,26.003,47.722,26.561,47.722z"/>
	<path fill="#FAAD1D" d="M26.561,51.755h14.113c0.557,0,1.008-0.451,1.008-1.008s-0.451-1.008-1.008-1.008H26.561
		c-0.558,0-1.008,0.451-1.008,1.008S26.003,51.755,26.561,51.755z"/>
	<path fill="#FAAD1D" d="M26.561,55.788h14.113c0.557,0,1.008-0.451,1.008-1.008c0-0.558-0.451-1.011-1.008-1.011H26.561
		c-0.558,0-1.008,0.453-1.008,1.011C25.553,55.337,26.003,55.788,26.561,55.788z"/>
	<path fill="#FAAD1D" d="M18.496,5.381c0.556,0,1.008-0.451,1.008-1.008c0.556,0,1.008-0.452,1.008-1.008
		c0-0.557-0.452-1.008-1.008-1.008h-1.008c-0.558,0-1.009,0.451-1.009,1.008v1.008C17.487,4.93,17.938,5.381,18.496,5.381z"/>
	<path fill="#FAAD1D" d="M58.819,2.357H33.616c-0.556,0-1.008,0.451-1.008,1.008c0,0.556,0.452,1.008,1.008,1.008h24.195v32.259
		h-9.072c-0.557,0-1.009,0.452-1.009,1.01c0,0.557,0.452,1.008,1.009,1.008h10.08c0.559,0,1.009-0.451,1.009-1.008V3.365
		C59.828,2.808,59.378,2.357,58.819,2.357z"/>
	<path fill="#FAAD1D" d="M18.496,21.511c-0.558,0-1.009,0.452-1.009,1.008v5.042c0,0.556,0.451,1.007,1.009,1.007
		c0.556,0,1.008-0.452,1.008-1.007v-5.042C19.504,21.963,19.052,21.511,18.496,21.511z"/>
	<path fill="#FAAD1D" d="M37.649,7.397c0-0.557-0.451-1.008-1.009-1.008h-3.024c-0.556,0-1.008,0.451-1.008,1.008
		s0.452,1.008,1.008,1.008h2.018v9.073H22.528c-0.558,0-1.008,0.451-1.008,1.009c0,0.556,0.45,1.007,1.008,1.007h14.112
		c0.558,0,1.009-0.451,1.009-1.007V7.397z"/>
	<path fill="#FAAD1D" d="M40.674,19.495h14.114c0.556,0,1.008-0.451,1.008-1.007V7.397c0-0.557-0.452-1.008-1.008-1.008H40.674
		c-0.557,0-1.007,0.451-1.007,1.008v11.09C39.667,19.043,40.117,19.495,40.674,19.495z M41.682,8.405h12.098v9.073H41.682V8.405z"/>
	<path fill="#FAAD1D" d="M36.641,28.568c0.558,0,1.009-0.452,1.009-1.007v-5.042c0-0.556-0.451-1.008-1.009-1.008H22.528
		c-0.558,0-1.008,0.452-1.008,1.008v5.042c0,0.556,0.45,1.007,1.008,1.007c0.557,0,1.008-0.452,1.008-1.007v-4.034h12.097v4.034
		C35.634,28.117,36.085,28.568,36.641,28.568z"/>
	<path fill="#FAAD1D" d="M39.667,27.561c0,0.556,0.45,1.007,1.007,1.007s1.008-0.452,1.008-1.007v-4.034h12.098v9.074h-5.04
		c-0.557,0-1.009,0.45-1.009,1.009c0,0.556,0.452,1.008,1.009,1.008h6.049c0.556,0,1.008-0.452,1.008-1.008v-11.09
		c0-0.556-0.452-1.008-1.008-1.008H40.674c-0.557,0-1.007,0.452-1.007,1.008V27.561z"/>
</g>
</svg>
