<?xml version="1.0" encoding="utf-8"?>
<!-- Generator: Adobe Illustrator 16.0.0, SVG Export Plug-In . SVG Version: 6.00 Build 0)  -->
<!DOCTYPE svg PUBLIC "-//W3C//DTD SVG 1.1//EN" "http://www.w3.org/Graphics/SVG/1.1/DTD/svg11.dtd">
<svg version="1.1" id="Layer_1" xmlns="http://www.w3.org/2000/svg" xmlns:xlink="http://www.w3.org/1999/xlink" x="0px" y="0px"
	 width="60px" height="60px" viewBox="0 0 60 60" enable-background="new 0 0 60 60" xml:space="preserve">
<g>
	<g>
		<path fill="#FAAD1D" d="M11.477,11.108c0.378-0.511,0.631-1.144,0.631-1.898c0-0.766-0.253-1.398-0.766-1.776
			c-0.511-0.511-1.398-0.767-2.529-0.767c-0.888,0-1.642,0-2.154,0.122v8.747h1.143v-3.541c0.257,0.122,0.511,0.122,0.89,0.122
			C9.822,12.118,10.844,11.74,11.477,11.108z M7.801,7.678c0.257-0.121,0.634-0.121,1.145-0.121c1.265,0,2.152,0.632,2.152,1.775
			c0,1.266-0.887,1.898-2.286,1.898c-0.511,0-0.768,0-1.011-0.122V7.678z"/>
		<path fill="#FAAD1D" d="M14.894,11.619h1.009c1.011,0.121,1.522,0.51,1.776,1.776c0.256,1.144,0.512,1.897,0.633,2.153h1.143
			c-0.122-0.256-0.377-1.144-0.632-2.409c-0.122-0.888-0.632-1.52-1.265-1.775c0.888-0.377,1.642-1.144,1.642-2.287
			c0-0.633-0.255-1.265-0.766-1.654c-0.511-0.511-1.266-0.767-2.531-0.767c-0.766,0-1.52,0-2.152,0.122v8.625h1.143V11.619z
			 M14.894,7.678c0.122-0.121,0.633-0.121,1.144-0.121c1.143,0,2.032,0.51,2.032,1.653c0,1.01-0.766,1.655-2.032,1.655h-1.144V7.678
			z"/>
		<polygon fill="#FAAD1D" points="25.807,14.66 21.999,14.66 21.999,11.485 25.296,11.485 25.296,10.597 21.877,10.597 
			21.877,7.812 25.55,7.812 25.55,6.79 20.733,6.79 20.733,15.67 25.807,15.67 		"/>
		<path fill="#FAAD1D" d="M29.224,14.782c-0.765,0-1.52-0.255-2.031-0.632l-0.255,1.143c0.511,0.256,1.398,0.511,2.286,0.511
			c2.154,0,3.177-1.144,3.177-2.542c0-1.399-0.767-2.032-2.287-2.665c-1.267-0.511-1.777-0.888-1.777-1.776
			c0-0.632,0.377-1.398,1.644-1.398c0.766,0,1.398,0.255,1.643,0.377l0.377-0.888c-0.511-0.122-1.145-0.377-2.032-0.377
			c-1.776,0-2.919,1.01-2.919,2.409c0,1.265,1.009,2.031,2.409,2.542c1.144,0.511,1.643,0.889,1.643,1.777
			C31.123,14.149,30.369,14.782,29.224,14.782z"/>
		<path fill="#FAAD1D" d="M36.584,10.597L36.584,10.597c-1.265-0.511-1.775-0.888-1.775-1.776c0-0.632,0.378-1.398,1.642-1.398
			c0.769,0,1.398,0.255,1.642,0.377l0.38-0.888c-0.511-0.122-1.145-0.377-2.033-0.377c-1.775,0-2.919,1.01-2.919,2.409
			c0,1.265,1.011,2.031,2.408,2.542c1.144,0.511,1.642,0.889,1.642,1.777c0,0.888-0.765,1.52-1.896,1.52
			c-0.766,0-1.522-0.255-2.032-0.632l-0.256,1.143c0.512,0.256,1.4,0.511,2.288,0.511c2.153,0,3.176-1.144,3.176-2.542
			C38.86,11.862,38.106,11.229,36.584,10.597z"/>
		<rect x="7.925" y="29.878" fill="#FAAD1D" width="21.556" height="2.543"/>
		<rect x="7.925" y="21.509" fill="#FAAD1D" width="26.627" height="2.543"/>
		<path fill="#FAAD1D" d="M59.783,39.514V15.159c0-0.377-0.121-0.633-0.376-0.888L45.709,0.573
			c-0.257-0.255-0.511-0.377-0.888-0.377H1.464c-0.766,0-1.266,0.511-1.266,1.265v38.052c0,0.766,0.512,1.265,1.266,1.265h36.762
			v4.307c0,2.542,2.032,4.562,4.563,4.562h1.897v7.614h-2.532v2.542h7.604v-2.542h-2.529v-7.614h1.775
			c2.531,0,4.562-2.033,4.562-4.441v-4.44h5.073C59.407,40.778,59.905,40.279,59.783,39.514z M46.208,4.636l9.257,9.257h-9.257
			V4.636z M49.128,47.25H42.91c-1.143,0-2.03-0.888-2.03-2.031V31.399c0-1.144,0.888-2.032,2.03-2.032h1.777v8.88h2.529v-8.88h1.897
			c1.145,0,2.032,0.888,2.032,2.032v13.819h0.011C51.157,46.362,50.27,47.25,49.128,47.25z M57.362,38.235h-3.796v-6.836
			c0-2.542-2.03-4.563-4.562-4.563H42.79c-2.531,0-4.563,2.033-4.563,4.563v6.849H2.851V2.739h40.826v12.42
			c0,0.766,0.511,1.265,1.265,1.265h12.421V38.235z"/>
	</g>
</g>
</svg>
